<?xml version="1.0" encoding="UTF-8"?>
<!DOCTYPE svg PUBLIC "-//W3C//DTD SVG 1.1//EN" "http://www.w3.org/Graphics/SVG/1.1/DTD/svg11.dtd">
<svg xmlns="http://www.w3.org/2000/svg" version="1.1" width="516px" height="484px" style="shape-rendering:geometricPrecision; text-rendering:geometricPrecision; image-rendering:optimizeQuality; fill-rule:evenodd; clip-rule:evenodd" xmlns:xlink="http://www.w3.org/1999/xlink">
<g><path style="opacity:0.997" fill="#bfb47b" d="M 243.5,44.5 C 244.645,45.7927 244.311,46.9593 242.5,48C 238.779,48.6198 235.112,49.4532 231.5,50.5C 231.709,51.086 232.043,51.586 232.5,52C 230.893,53.049 230.227,54.549 230.5,56.5C 225.71,56.7229 222.044,58.7229 219.5,62.5C 216.813,62.3359 214.146,62.5026 211.5,63C 207.877,64.9293 204.21,66.7626 200.5,68.5C 199.614,69.325 199.281,70.325 199.5,71.5C 197.833,71.5 196.167,71.5 194.5,71.5C 194.036,68.304 192.536,68.304 190,71.5C 189.833,71 189.667,70.5 189.5,70C 190.724,67.7102 192.057,65.5435 193.5,63.5C 194.315,62.1634 195.482,61.1634 197,60.5C 196.562,57.8014 196.728,55.1347 197.5,52.5C 204.95,49.6086 212.283,46.4419 219.5,43C 223.288,41.9423 225.288,43.4423 225.5,47.5C 226.167,47.8333 226.833,48.1667 227.5,48.5C 233.016,47.3688 238.349,46.0355 243.5,44.5 Z"/></g>
<g><path style="opacity:1" fill="#c9c689" d="M 273.5,45.5 C 280.549,48.8931 288.216,51.0597 296.5,52C 295.167,52.6667 295.167,53.3333 296.5,54C 295.672,54.9147 294.672,55.5814 293.5,56C 287.984,56.1733 282.651,56.6733 277.5,57.5C 276.833,57.5 276.5,57.1667 276.5,56.5C 270.369,55.17 263.869,54.5034 257,54.5C 247.982,54.2852 239.148,54.9519 230.5,56.5C 230.227,54.549 230.893,53.049 232.5,52C 232.043,51.586 231.709,51.086 231.5,50.5C 235.112,49.4532 238.779,48.6198 242.5,48C 244.311,46.9593 244.645,45.7927 243.5,44.5C 243.318,42.4086 243.652,40.4086 244.5,38.5C 253.816,37.3346 263.149,37.1679 272.5,38C 273.435,40.3806 273.768,42.8806 273.5,45.5 Z"/></g>
<g><path style="opacity:1" fill="#c4ba7d" d="M 316.5,51.5 C 321.635,52.2106 322.968,54.544 320.5,58.5C 319.549,59.9187 319.216,61.5853 319.5,63.5C 320.675,63.281 321.675,63.6143 322.5,64.5C 320.587,65.0512 318.587,65.2179 316.5,65C 316.07,65.9195 315.736,66.7528 315.5,67.5C 313.336,66.5857 311.336,65.419 309.5,64C 307.167,63.6667 304.833,63.3333 302.5,63C 301.809,61.9326 301.309,60.7659 301,59.5C 300.667,59.8333 300.333,60.1667 300,60.5C 297.72,59.9136 295.553,59.0803 293.5,58C 296.095,57.7744 298.595,57.2744 301,56.5C 301.333,56.8333 301.667,57.1667 302,57.5C 302.5,56.5 303,55.5 303.5,54.5C 301.647,53.2404 299.814,53.2404 298,54.5C 297.405,53.1011 297.572,51.7678 298.5,50.5C 293.442,48.2318 293.775,46.5651 299.5,45.5C 299.5,46.8333 299.5,48.1667 299.5,49.5C 302.157,49.162 304.49,49.8287 306.5,51.5C 309.652,51.2879 312.985,51.2879 316.5,51.5 Z"/></g>
<g><path style="opacity:0.714" fill="#a4a074" d="M 276.5,56.5 C 256.988,53.8254 237.988,55.8254 219.5,62.5C 222.044,58.7229 225.71,56.7229 230.5,56.5C 239.148,54.9519 247.982,54.2852 257,54.5C 263.869,54.5034 270.369,55.17 276.5,56.5 Z"/></g>
<g><path style="opacity:1" fill="#ada473" d="M 316.5,51.5 C 312.985,51.2879 309.652,51.2879 306.5,51.5C 304.49,49.8287 302.157,49.162 299.5,49.5C 299.5,48.1667 299.5,46.8333 299.5,45.5C 293.775,46.5651 293.442,48.2318 298.5,50.5C 297.572,51.7678 297.405,53.1011 298,54.5C 299.814,53.2404 301.647,53.2404 303.5,54.5C 303,55.5 302.5,56.5 302,57.5C 301.667,57.1667 301.333,56.8333 301,56.5C 298.595,57.2744 296.095,57.7744 293.5,58C 295.553,59.0803 297.72,59.9136 300,60.5C 300.333,60.1667 300.667,59.8333 301,59.5C 301.309,60.7659 301.809,61.9326 302.5,63C 304.833,63.3333 307.167,63.6667 309.5,64C 311.336,65.419 313.336,66.5857 315.5,67.5C 315.736,66.7528 316.07,65.9195 316.5,65C 318.587,65.2179 320.587,65.0512 322.5,64.5C 321.675,63.6143 320.675,63.281 319.5,63.5C 319.216,61.5853 319.549,59.9187 320.5,58.5C 320.511,60.0174 321.177,61.1841 322.5,62C 326.11,63.944 329.443,66.2774 332.5,69C 333.928,69.5791 335.262,69.4124 336.5,68.5C 334.193,72.1202 331.526,72.2869 328.5,69C 323.569,68.7567 321.903,70.9234 323.5,75.5C 324.873,75.3433 326.207,75.51 327.5,76C 329.333,79.1667 331.833,81.6667 335,83.5C 335.791,84.745 336.291,86.0783 336.5,87.5C 320.035,71.4336 300.369,61.4336 277.5,57.5C 282.651,56.6733 287.984,56.1733 293.5,56C 294.672,55.5814 295.672,54.9147 296.5,54C 295.167,53.3333 295.167,52.6667 296.5,52C 288.216,51.0597 280.549,48.8931 273.5,45.5C 279.224,46.1112 284.891,47.1112 290.5,48.5C 292.419,46.5325 294.252,44.5325 296,42.5C 302.982,45.4132 309.815,48.4132 316.5,51.5 Z"/></g>
<g><path style="opacity:1" fill="#a09365" d="M 219.5,62.5 C 200.377,70.6122 184.043,82.6122 170.5,98.5C 170.318,96.4086 170.652,94.4086 171.5,92.5C 175.085,89.4954 178.085,85.9954 180.5,82C 184.601,81.2252 186.434,78.7252 186,74.5C 186.75,73.8742 187.584,73.3742 188.5,73C 183.791,73.2647 179.791,71.7647 176.5,68.5C 175.749,69.376 175.249,70.376 175,71.5C 170.627,76.208 165.961,80.5414 161,84.5C 160.571,86.6687 161.071,88.6687 162.5,90.5C 162.376,91.1067 162.043,91.44 161.5,91.5C 158.302,90.1463 157.136,87.8129 158,84.5C 164.14,78.3604 170.306,72.1937 176.5,66C 179.272,66.0524 181.606,67.219 183.5,69.5C 186.606,67.0478 189.939,65.0478 193.5,63.5C 192.057,65.5435 190.724,67.7102 189.5,70C 189.667,70.5 189.833,71 190,71.5C 192.536,68.304 194.036,68.304 194.5,71.5C 196.167,71.5 197.833,71.5 199.5,71.5C 199.281,70.325 199.614,69.325 200.5,68.5C 204.21,66.7626 207.877,64.9293 211.5,63C 214.146,62.5026 216.813,62.3359 219.5,62.5 Z"/></g>
<g><path style="opacity:1" fill="#b9a66c" d="M 337.5,67.5 C 338.496,67.4142 339.329,67.7476 340,68.5C 340.212,71.4402 341.712,73.2736 344.5,74C 343.167,74.6667 343.167,75.3333 344.5,76C 347.742,76.2833 348.076,77.1166 345.5,78.5C 349.27,80.6837 353.103,82.6837 357,84.5C 357.557,86.5859 356.724,87.9193 354.5,88.5C 353.996,91.2988 352.996,93.7988 351.5,96C 353.619,98.2185 353.952,100.718 352.5,103.5C 351.05,102.15 350.383,100.484 350.5,98.5C 349.325,98.719 348.325,98.3857 347.5,97.5C 346.14,91.65 342.474,88.3167 336.5,87.5C 336.291,86.0783 335.791,84.745 335,83.5C 331.833,81.6667 329.333,79.1667 327.5,76C 326.207,75.51 324.873,75.3433 323.5,75.5C 321.903,70.9234 323.569,68.7567 328.5,69C 331.526,72.2869 334.193,72.1202 336.5,68.5C 336.5,67.8333 336.833,67.5 337.5,67.5 Z"/></g>
<g><path style="opacity:0.951" fill="#f7f7f6" d="M 293.5,97.5 C 293.833,98.1667 294.167,98.8333 294.5,99.5C 293.147,101.128 293.481,102.462 295.5,103.5C 295.054,106.01 295.72,108.01 297.5,109.5C 297.232,111.099 297.566,112.432 298.5,113.5C 298.054,116.01 298.72,118.01 300.5,119.5C 300.054,122.01 300.72,124.01 302.5,125.5C 303.023,128.89 303.857,132.223 305,135.5C 305.383,136.056 305.883,136.389 306.5,136.5C 306.528,139.916 307.528,142.916 309.5,145.5C 309.263,146.791 309.596,147.791 310.5,148.5C 310.263,149.791 310.596,150.791 311.5,151.5C 311.263,152.791 311.596,153.791 312.5,154.5C 312.328,155.492 312.662,156.158 313.5,156.5C 313.325,158.621 313.659,160.621 314.5,162.5C 313.638,168.059 314.971,172.892 318.5,177C 317.629,179.243 317.629,181.243 318.5,183C 307.591,189.881 302.591,187.048 303.5,174.5C 300.729,174.421 298.063,174.921 295.5,176C 294.244,176.417 293.577,177.25 293.5,178.5C 293.863,182.617 293.863,186.617 293.5,190.5C 287.58,191.817 281.58,192.483 275.5,192.5C 275.5,189.833 275.5,187.167 275.5,184.5C 276.282,180.326 276.949,175.992 277.5,171.5C 277.036,168.651 276.369,165.984 275.5,163.5C 274.475,142.147 273.975,120.813 274,99.5C 274.5,99 275,98.5 275.5,98C 280.024,97.2953 284.524,96.4619 289,95.5C 290.833,95.5186 292.333,96.1852 293.5,97.5 Z M 291.5,153.5 C 291.56,152.957 291.893,152.624 292.5,152.5C 293.598,154.632 294.598,156.798 295.5,159C 294.975,159.692 294.308,160.192 293.5,160.5C 292.832,158.031 292.165,155.698 291.5,153.5 Z"/></g>
<g><path style="opacity:0.979" fill="#f9f9f9" d="M 227.5,156.5 C 231.325,137.383 236.325,118.717 242.5,100.5C 243.666,121.826 243.833,143.159 243,164.5C 241.648,170.245 240.148,175.911 238.5,181.5C 236.99,182.836 235.323,184.003 233.5,185C 234.553,188.018 233.553,190.352 230.5,192C 226.833,192.667 223.167,192.667 219.5,192C 219.026,190.271 218.026,189.105 216.5,188.5C 214.802,180.707 212.635,173.041 210,165.5C 209.5,172.158 209.334,178.825 209.5,185.5C 209.5,186.833 209.5,188.167 209.5,189.5C 204.354,191.61 199.021,191.944 193.5,190.5C 193.977,189.522 194.643,188.689 195.5,188C 194.528,159.918 194.195,131.918 194.5,104C 194.667,103.167 194.833,102.333 195,101.5C 195.914,102.654 196.747,102.487 197.5,101C 201.486,100.501 205.486,100.334 209.5,100.5C 210.543,105.939 210.543,111.106 209.5,116C 210,116.5 210.5,117 211,117.5C 211.333,116.167 211.667,114.833 212,113.5C 215.37,118.242 216.537,123.409 215.5,129C 218.652,135.473 220.485,142.306 221,149.5C 223.131,152.431 224.298,155.431 224.5,158.5C 225.739,158.058 226.739,157.391 227.5,156.5 Z M 214.5,106.5 C 215.913,109.219 216.58,112.219 216.5,115.5C 215.087,112.781 214.42,109.781 214.5,106.5 Z M 216.5,115.5 C 218.944,123.613 220.944,131.946 222.5,140.5C 219.425,132.53 217.425,124.196 216.5,115.5 Z"/></g>
<g><path style="opacity:0.904" fill="#f0f0ef" d="M 263.5,193.5 C 257.5,193.5 251.5,193.5 245.5,193.5C 245.333,162.498 245.5,131.498 246,100.5C 251.741,99.5251 257.575,99.1918 263.5,99.5C 263.5,112.167 263.5,124.833 263.5,137.5C 266.572,137.183 269.572,137.516 272.5,138.5C 272.66,144.046 272.66,149.712 272.5,155.5C 269.5,155.5 266.5,155.5 263.5,155.5C 263.5,168.167 263.5,180.833 263.5,193.5 Z"/></g>
<g><path style="opacity:0.681" fill="#e6e6e4" d="M 214.5,106.5 C 214.42,109.781 215.087,112.781 216.5,115.5C 217.425,124.196 219.425,132.53 222.5,140.5C 222.263,141.791 222.596,142.791 223.5,143.5C 224.338,143.842 224.672,144.508 224.5,145.5C 223.876,145.917 223.543,146.584 223.5,147.5C 224.064,149.819 224.564,152.153 225,154.5C 225.417,155.756 226.25,156.423 227.5,156.5C 226.739,157.391 225.739,158.058 224.5,158.5C 224.298,155.431 223.131,152.431 221,149.5C 220.485,142.306 218.652,135.473 215.5,129C 216.537,123.409 215.37,118.242 212,113.5C 211.667,114.833 211.333,116.167 211,117.5C 210.5,117 210,116.5 209.5,116C 210.543,111.106 210.543,105.939 209.5,100.5C 205.486,100.334 201.486,100.501 197.5,101C 196.747,102.487 195.914,102.654 195,101.5C 194.833,102.333 194.667,103.167 194.5,104C 194.195,131.918 194.528,159.918 195.5,188C 194.643,188.689 193.977,189.522 193.5,190.5C 199.021,191.944 204.354,191.61 209.5,189.5C 209.5,190.167 209.5,190.833 209.5,191.5C 209.5,192.167 209.5,192.833 209.5,193.5C 203.5,193.5 197.5,193.5 191.5,193.5C 191.333,162.498 191.5,131.498 192,100.5C 198.418,99.3567 204.918,99.19 211.5,100C 212.731,102.166 213.731,104.333 214.5,106.5 Z"/></g>
<g><path style="opacity:0.533" fill="#bfab8c" d="M 265.5,99.5 C 266.822,99.33 267.989,99.6634 269,100.5C 269.667,111.5 269.667,122.5 269,133.5C 266.08,136.437 264.58,135.77 264.5,131.5C 265.433,120.747 265.767,110.08 265.5,99.5 Z"/></g>
<g><path style="opacity:1" fill="#a7915e" d="M 383.5,129.5 C 382.566,130.568 382.232,131.901 382.5,133.5C 392.222,133.116 399.222,133.449 403.5,134.5C 395.472,134.831 387.472,134.498 379.5,133.5C 377.214,131.035 375.881,131.701 375.5,135.5C 374.527,136.791 373.527,136.791 372.5,135.5C 371.062,137.998 371.396,140.164 373.5,142C 370.231,144.9 369.565,148.4 371.5,152.5C 371.415,154.333 370.748,155.666 369.5,156.5C 366.258,129.687 355.258,106.687 336.5,87.5C 342.474,88.3167 346.14,91.65 347.5,97.5C 348.325,98.3857 349.325,98.719 350.5,98.5C 350.383,100.484 351.05,102.15 352.5,103.5C 353.952,100.718 353.619,98.2185 351.5,96C 352.996,93.7988 353.996,91.2988 354.5,88.5C 356.724,87.9193 357.557,86.5859 357,84.5C 353.103,82.6837 349.27,80.6837 345.5,78.5C 348.076,77.1166 347.742,76.2833 344.5,76C 343.167,75.3333 343.167,74.6667 344.5,74C 341.712,73.2736 340.212,71.4402 340,68.5C 339.329,67.7476 338.496,67.4142 337.5,67.5C 337.811,66.5222 338.478,65.8555 339.5,65.5C 346.432,71.9305 353.265,78.5972 360,85.5C 359.983,87.5676 358.983,89.2343 357,90.5C 356.333,91.5 356.333,92.5 357,93.5C 360.204,97.4069 363.038,101.574 365.5,106C 368.354,105.336 371.188,105.502 374,106.5C 377.272,114.155 380.438,121.822 383.5,129.5 Z"/></g>
<g><path style="opacity:0.965" fill="#9e8861" d="M 224.5,145.5 C 224.672,144.508 224.338,143.842 223.5,143.5C 223.737,142.209 223.404,141.209 222.5,140.5C 220.944,131.946 218.944,123.613 216.5,115.5C 216.58,112.219 215.913,109.219 214.5,106.5C 214.5,104.167 214.5,101.833 214.5,99.5C 217.522,99.4282 219.688,100.762 221,103.5C 225.349,116.908 228.015,130.574 229,144.5C 227.476,147.428 225.976,147.761 224.5,145.5 Z"/></g>
<g><path style="opacity:0.506" fill="#7f6c4c" d="M 152.5,106.5 C 150.052,107.473 147.385,107.806 144.5,107.5C 143.786,114.195 141.286,120.195 137,125.5C 136.667,128.167 136.333,130.833 136,133.5C 135.292,134.381 134.458,135.047 133.5,135.5C 132.737,134.732 131.737,134.232 130.5,134C 107.817,133.24 85.1506,133.574 62.5,135C 61.9781,135.561 61.6448,136.228 61.5,137C 63.0128,138.879 63.6795,141.046 63.5,143.5C 61.2753,140.738 59.2753,137.738 57.5,134.5C 57.7093,133.914 58.0426,133.414 58.5,133C 83.8311,132.5 109.164,132.333 134.5,132.5C 136.362,123.082 139.529,114.082 144,105.5C 144.725,104.941 145.558,104.608 146.5,104.5C 148.516,105.178 150.516,105.844 152.5,106.5 Z"/></g>
<g><path style="opacity:0.969" fill="#9b8458" d="M 318.5,150.5 C 320.578,163.477 323.911,176.143 328.5,188.5C 328.363,190.107 327.696,191.441 326.5,192.5C 324.189,193.214 322.022,194.214 320,195.5C 319.439,194.978 318.772,194.645 318,194.5C 314.906,195.566 311.74,196.232 308.5,196.5C 308.286,194.856 308.62,193.356 309.5,192C 313.167,191.667 316.833,191.333 320.5,191C 319.833,190.667 319.167,190.333 318.5,190C 321.209,189.459 323.209,187.959 324.5,185.5C 324.043,184.702 323.376,184.369 322.5,184.5C 322.784,182.585 322.451,180.919 321.5,179.5C 321.405,177.214 320.738,175.214 319.5,173.5C 319.108,171.821 318.608,170.154 318,168.5C 317.536,169.094 317.369,169.761 317.5,170.5C 316.596,169.791 316.263,168.791 316.5,167.5C 317.833,167.167 317.833,166.833 316.5,166.5C 316.768,164.901 316.434,163.568 315.5,162.5C 315.405,160.214 314.738,158.214 313.5,156.5C 313.672,155.508 313.338,154.842 312.5,154.5C 312.737,153.209 312.404,152.209 311.5,151.5C 311.737,150.209 311.404,149.209 310.5,148.5C 310.737,147.209 310.404,146.209 309.5,145.5C 309.072,142.215 308.072,139.215 306.5,136.5C 305.918,132.468 304.584,128.801 302.5,125.5C 302.405,123.214 301.738,121.214 300.5,119.5C 300.405,117.214 299.738,115.214 298.5,113.5C 298.768,111.901 298.434,110.568 297.5,109.5C 297.741,107.102 297.074,105.102 295.5,103.5C 295.167,102.167 294.833,100.833 294.5,99.5C 294.167,98.8333 293.833,98.1667 293.5,97.5C 294.314,95.7274 295.648,95.2274 297.5,96C 299.617,97.7309 301.117,99.8976 302,102.5C 307.787,118.406 313.287,134.406 318.5,150.5 Z"/></g>
<g><path style="opacity:1" fill="#af955e" d="M 170.5,98.5 C 148.865,128.006 142.198,160.673 150.5,196.5C 150.66,198.199 150.494,199.866 150,201.5C 148.179,203.146 147.013,205.146 146.5,207.5C 145.167,208.5 145.167,209.5 146.5,210.5C 146.5,210.833 146.5,211.167 146.5,211.5C 146.058,214.447 144.892,217.113 143,219.5C 140.794,216.232 138.961,212.732 137.5,209C 134.881,209.083 132.214,209.25 129.5,209.5C 127.656,204.085 126.989,198.418 127.5,192.5C 124.478,192.196 121.478,191.696 118.5,191C 123.908,189.126 129.908,187.292 136.5,185.5C 136.5,185.167 136.5,184.833 136.5,184.5C 137.985,185.935 139.318,185.768 140.5,184C 138.913,183.138 137.246,182.471 135.5,182C 131.459,181.827 127.459,181.327 123.5,180.5C 124.729,179.719 126.062,179.219 127.5,179C 124.258,178.717 123.924,177.883 126.5,176.5C 127.046,175.228 127.379,173.894 127.5,172.5C 126.843,170.528 126.843,168.695 127.5,167C 126.061,166.009 125.061,164.676 124.5,163C 127.864,162.511 130.531,161.011 132.5,158.5C 132.392,157.558 132.059,156.725 131.5,156C 129.833,155.667 128.167,155.333 126.5,155C 127.28,153.927 127.113,152.76 126,151.5C 125.333,152.833 124.667,152.833 124,151.5C 123.362,150.391 122.862,149.225 122.5,148C 123.707,146.7 124.374,145.2 124.5,143.5C 125.675,143.719 126.675,143.386 127.5,142.5C 125.726,141.813 124.059,140.98 122.5,140C 125.491,139.855 127.158,138.355 127.5,135.5C 129.5,135.5 131.5,135.5 133.5,135.5C 134.458,135.047 135.292,134.381 136,133.5C 136.333,130.833 136.667,128.167 137,125.5C 141.286,120.195 143.786,114.195 144.5,107.5C 147.385,107.806 150.052,107.473 152.5,106.5C 155.075,101.255 158.075,96.2553 161.5,91.5C 162.043,91.44 162.376,91.1067 162.5,90.5C 161.071,88.6687 160.571,86.6687 161,84.5C 165.961,80.5414 170.627,76.208 175,71.5C 175.249,70.376 175.749,69.376 176.5,68.5C 179.791,71.7647 183.791,73.2647 188.5,73C 187.584,73.3742 186.75,73.8742 186,74.5C 186.434,78.7252 184.601,81.2252 180.5,82C 178.085,85.9954 175.085,89.4954 171.5,92.5C 170.652,94.4086 170.318,96.4086 170.5,98.5 Z"/></g>
<g><path style="opacity:1" fill="#a07a47" d="M 133.5,135.5 C 131.5,135.5 129.5,135.5 127.5,135.5C 118.367,135.06 109.367,135.894 100.5,138C 99.2412,138.923 97.9079,139.757 96.5,140.5C 97.5695,140.64 98.7361,140.64 100,140.5C 100.317,142.301 100.984,142.634 102,141.5C 102.5,142 103,142.5 103.5,143C 98.4374,144.328 98.7707,145.328 104.5,146C 103.663,147.011 103.33,148.178 103.5,149.5C 94.2466,150.265 94.2466,151.432 103.5,153C 101.833,153.333 100.167,153.667 98.5,154C 102.77,155.075 107.103,155.575 111.5,155.5C 108.854,156.164 106.021,156.498 103,156.5C 92.5043,155.913 82.0043,155.413 71.5,155C 70.5384,151.784 69.3717,148.618 68,145.5C 66.6439,144.62 65.1439,144.286 63.5,144.5C 63.5,144.167 63.5,143.833 63.5,143.5C 63.6795,141.046 63.0128,138.879 61.5,137C 61.6448,136.228 61.9781,135.561 62.5,135C 85.1506,133.574 107.817,133.24 130.5,134C 131.737,134.232 132.737,134.732 133.5,135.5 Z"/></g>
<g><path style="opacity:1" fill="#a5824d" d="M 403.5,134.5 C 420.338,135.167 437.338,135.833 454.5,136.5C 453.559,141.162 451.392,145.162 448,148.5C 447.667,147.833 447.333,147.167 447,146.5C 445.453,149.405 443.619,152.071 441.5,154.5C 426.178,155.333 410.844,155.833 395.5,156C 393.616,156.216 391.949,156.883 390.5,158C 390.957,158.414 391.291,158.914 391.5,159.5C 407.125,161.085 422.791,161.751 438.5,161.5C 437.142,166.94 435.308,171.607 433,175.5C 432.004,177.744 430.504,179.577 428.5,181C 415.6,183.021 400.6,183.854 383.5,183.5C 386.343,181.599 389.676,180.433 393.5,180C 392.026,178.684 390.359,177.684 388.5,177C 389.448,176.517 390.448,176.351 391.5,176.5C 391.044,172.889 391.711,169.556 393.5,166.5C 391.978,164.844 392.311,163.677 394.5,163C 391.607,161.851 388.607,161.351 385.5,161.5C 385.5,159.5 385.5,157.5 385.5,155.5C 387.655,155.628 389.655,155.128 391.5,154C 390.511,151.77 391.178,149.936 393.5,148.5C 392.273,147.41 391.44,146.076 391,144.5C 389.795,143.929 388.628,143.262 387.5,142.5C 389.5,141.667 391.5,140.833 393.5,140C 390.727,137.718 387.727,137.218 384.5,138.5C 383.614,137.675 383.281,136.675 383.5,135.5C 380.833,135.5 378.167,135.5 375.5,135.5C 375.881,131.701 377.214,131.035 379.5,133.5C 387.472,134.498 395.472,134.831 403.5,134.5 Z"/></g>
<g><path style="opacity:1" fill="#ae915b" d="M 375.5,135.5 C 378.167,135.5 380.833,135.5 383.5,135.5C 383.281,136.675 383.614,137.675 384.5,138.5C 387.727,137.218 390.727,137.718 393.5,140C 391.5,140.833 389.5,141.667 387.5,142.5C 388.628,143.262 389.795,143.929 391,144.5C 391.44,146.076 392.273,147.41 393.5,148.5C 391.178,149.936 390.511,151.77 391.5,154C 389.655,155.128 387.655,155.628 385.5,155.5C 385.5,157.5 385.5,159.5 385.5,161.5C 388.607,161.351 391.607,161.851 394.5,163C 392.311,163.677 391.978,164.844 393.5,166.5C 391.711,169.556 391.044,172.889 391.5,176.5C 390.448,176.351 389.448,176.517 388.5,177C 390.359,177.684 392.026,178.684 393.5,180C 389.676,180.433 386.343,181.599 383.5,183.5C 382.209,183.263 381.209,183.596 380.5,184.5C 387.648,185.492 394.981,185.825 402.5,185.5C 401.602,186.158 400.602,186.824 399.5,187.5C 401.059,189.131 403.059,189.964 405.5,190C 402.917,194.536 402.917,199.202 405.5,204C 405.167,204.833 404.833,205.667 404.5,206.5C 400.221,207.274 395.887,207.774 391.5,208C 398.863,208.467 406.197,208.467 413.5,208C 402.716,209.07 392.049,209.903 381.5,210.5C 380.599,211.29 379.932,212.29 379.5,213.5C 376.224,214.122 374.891,216.122 375.5,219.5C 371.197,219.265 369.53,216.931 370.5,212.5C 370.5,212.167 370.5,211.833 370.5,211.5C 371.147,210.726 371.48,209.726 371.5,208.5C 371.36,206.97 370.693,205.97 369.5,205.5C 368.833,205.5 368.5,205.833 368.5,206.5C 367.833,206.5 367.5,206.167 367.5,205.5C 367.5,204.833 367.167,204.5 366.5,204.5C 367.578,197.676 369.078,191.676 371,186.5C 371.167,181.667 371.333,176.833 371.5,172C 371.494,166.784 370.827,161.951 369.5,157.5C 369.5,157.167 369.5,156.833 369.5,156.5C 370.748,155.666 371.415,154.333 371.5,152.5C 369.565,148.4 370.231,144.9 373.5,142C 371.396,140.164 371.062,137.998 372.5,135.5C 373.527,136.791 374.527,136.791 375.5,135.5 Z"/></g>
<g><path style="opacity:0.826" fill="#84673c" d="M 383.5,129.5 C 383.5,130.5 383.5,131.5 383.5,132.5C 408.741,132.172 433.908,132.505 459,133.5C 459.667,134.5 459.667,135.5 459,136.5C 447.95,154.217 437.45,171.051 427.5,187C 424.19,193.134 420.523,198.967 416.5,204.5C 417.549,197.928 420.549,192.428 425.5,188C 425.257,187.098 424.923,186.265 424.5,185.5C 410.01,184.504 395.343,184.171 380.5,184.5C 381.209,183.596 382.209,183.263 383.5,183.5C 400.6,183.854 415.6,183.021 428.5,181C 430.504,179.577 432.004,177.744 433,175.5C 435.308,171.607 437.142,166.94 438.5,161.5C 422.791,161.751 407.125,161.085 391.5,159.5C 391.291,158.914 390.957,158.414 390.5,158C 391.949,156.883 393.616,156.216 395.5,156C 410.844,155.833 426.178,155.333 441.5,154.5C 443.619,152.071 445.453,149.405 447,146.5C 447.333,147.167 447.667,147.833 448,148.5C 451.392,145.162 453.559,141.162 454.5,136.5C 437.338,135.833 420.338,135.167 403.5,134.5C 399.222,133.449 392.222,133.116 382.5,133.5C 382.232,131.901 382.566,130.568 383.5,129.5 Z"/></g>
<g><path style="opacity:0.365" fill="#775c36" d="M 63.5,144.5 C 65.1439,144.286 66.6439,144.62 68,145.5C 69.3717,148.618 70.5384,151.784 71.5,155C 82.0043,155.413 92.5043,155.913 103,156.5C 106.021,156.498 108.854,156.164 111.5,155.5C 116.034,155.267 120.368,156.1 124.5,158C 125.696,158.654 125.696,159.154 124.5,159.5C 122.466,159.228 120.466,158.895 118.5,158.5C 117.263,158.556 116.263,159.056 115.5,160C 102.818,160.39 90.1515,161.056 77.5,162C 78.7865,164.022 79.7865,166.189 80.5,168.5C 81.376,169.251 82.376,169.751 83.5,170C 84.5729,172.657 86.2395,174.823 88.5,176.5C 87.1667,177.833 87.1667,179.167 88.5,180.5C 104.553,182.726 120.553,184.059 136.5,184.5C 120.119,184.818 103.786,184.485 87.5,183.5C 79.7104,170.231 71.7104,157.231 63.5,144.5 Z"/></g>
<g><path style="opacity:1" fill="#a78550" d="M 127.5,135.5 C 127.158,138.355 125.491,139.855 122.5,140C 124.059,140.98 125.726,141.813 127.5,142.5C 126.675,143.386 125.675,143.719 124.5,143.5C 124.374,145.2 123.707,146.7 122.5,148C 122.862,149.225 123.362,150.391 124,151.5C 124.667,152.833 125.333,152.833 126,151.5C 127.113,152.76 127.28,153.927 126.5,155C 128.167,155.333 129.833,155.667 131.5,156C 132.059,156.725 132.392,157.558 132.5,158.5C 130.531,161.011 127.864,162.511 124.5,163C 125.061,164.676 126.061,166.009 127.5,167C 126.843,168.695 126.843,170.528 127.5,172.5C 127.379,173.894 127.046,175.228 126.5,176.5C 123.924,177.883 124.258,178.717 127.5,179C 126.062,179.219 124.729,179.719 123.5,180.5C 127.459,181.327 131.459,181.827 135.5,182C 137.246,182.471 138.913,183.138 140.5,184C 139.318,185.768 137.985,185.935 136.5,184.5C 120.553,184.059 104.553,182.726 88.5,180.5C 87.1667,179.167 87.1667,177.833 88.5,176.5C 86.2395,174.823 84.5729,172.657 83.5,170C 82.376,169.751 81.376,169.251 80.5,168.5C 79.7865,166.189 78.7865,164.022 77.5,162C 90.1515,161.056 102.818,160.39 115.5,160C 116.263,159.056 117.263,158.556 118.5,158.5C 120.466,158.895 122.466,159.228 124.5,159.5C 125.696,159.154 125.696,158.654 124.5,158C 120.368,156.1 116.034,155.267 111.5,155.5C 107.103,155.575 102.77,155.075 98.5,154C 100.167,153.667 101.833,153.333 103.5,153C 94.2466,151.432 94.2466,150.265 103.5,149.5C 103.33,148.178 103.663,147.011 104.5,146C 98.7707,145.328 98.4374,144.328 103.5,143C 103,142.5 102.5,142 102,141.5C 100.984,142.634 100.317,142.301 100,140.5C 98.7361,140.64 97.5695,140.64 96.5,140.5C 97.9079,139.757 99.2412,138.923 100.5,138C 109.367,135.894 118.367,135.06 127.5,135.5 Z"/></g>
<g><path style="opacity:0.569" fill="#b2a17d" d="M 269.5,163.5 C 269.5,172.833 269.5,182.167 269.5,191.5C 268.167,191.5 266.833,191.5 265.5,191.5C 265.5,180.167 265.5,168.833 265.5,157.5C 269.857,157.556 271.191,159.556 269.5,163.5 Z"/></g>
<g><path style="opacity:0.494" fill="#b3b3b3" d="M 275.5,163.5 C 276.369,165.984 277.036,168.651 277.5,171.5C 276.949,175.992 276.282,180.326 275.5,184.5C 275.106,177.076 275.106,170.076 275.5,163.5 Z"/></g>
<g><path style="opacity:0.824" fill="#b9b7b5" d="M 314.5,162.5 C 314.833,162.5 315.167,162.5 315.5,162.5C 315.232,164.099 315.566,165.432 316.5,166.5C 316.5,166.833 316.5,167.167 316.5,167.5C 316.263,168.791 316.596,169.791 317.5,170.5C 317.427,172.027 318.094,173.027 319.5,173.5C 319.054,176.01 319.72,178.01 321.5,179.5C 321.756,181.792 321.423,183.959 320.5,186C 314.86,187.554 309.193,187.721 303.5,186.5C 302.67,183.984 301.67,181.65 300.5,179.5C 300.719,178.325 300.386,177.325 299.5,176.5C 297.47,177.172 295.47,177.838 293.5,178.5C 293.577,177.25 294.244,176.417 295.5,176C 298.063,174.921 300.729,174.421 303.5,174.5C 302.591,187.048 307.591,189.881 318.5,183C 317.629,181.243 317.629,179.243 318.5,177C 314.971,172.892 313.638,168.059 314.5,162.5 Z"/></g>
<g><path style="opacity:0.998" fill="#9b7b48" d="M 402.5,185.5 C 409.833,185.5 417.167,185.5 424.5,185.5C 424.923,186.265 425.257,187.098 425.5,188C 420.549,192.428 417.549,197.928 416.5,204.5C 416.16,206.679 415.16,208.512 413.5,210C 402.839,210.5 392.172,210.667 381.5,210.5C 392.049,209.903 402.716,209.07 413.5,208C 406.197,208.467 398.863,208.467 391.5,208C 395.887,207.774 400.221,207.274 404.5,206.5C 404.833,205.667 405.167,204.833 405.5,204C 402.917,199.202 402.917,194.536 405.5,190C 403.059,189.964 401.059,189.131 399.5,187.5C 400.602,186.824 401.602,186.158 402.5,185.5 Z"/></g>
<g><path style="opacity:0.998" fill="#a68551" d="M 136.5,185.5 C 129.908,187.292 123.908,189.126 118.5,191C 121.478,191.696 124.478,192.196 127.5,192.5C 126.989,198.418 127.656,204.085 129.5,209.5C 121.167,209.5 112.833,209.5 104.5,209.5C 98.7774,202.411 93.7774,194.744 89.5,186.5C 105.152,185.501 120.819,185.167 136.5,185.5 Z"/></g>
<g><path style="opacity:0.173" fill="#c7c7bf" d="M 238.5,181.5 C 237.417,185.085 236.751,188.751 236.5,192.5C 230.222,193.79 223.888,193.79 217.5,192.5C 216.754,191.264 216.421,189.93 216.5,188.5C 218.026,189.105 219.026,190.271 219.5,192C 223.167,192.667 226.833,192.667 230.5,192C 233.553,190.352 234.553,188.018 233.5,185C 235.323,184.003 236.99,182.836 238.5,181.5 Z"/></g>
<g><path style="opacity:0.255" fill="#7e6f4b" d="M 318.5,150.5 C 323.123,162.955 327.456,175.622 331.5,188.5C 330.845,191.659 329.178,194.159 326.5,196C 320.872,197.329 315.205,197.995 309.5,198C 306.854,197.196 304.854,195.696 303.5,193.5C 302.89,192.609 302.557,191.609 302.5,190.5C 303.117,190.611 303.617,190.944 304,191.5C 309.709,189.629 315.542,188.129 321.5,187C 322.252,186.329 322.586,185.496 322.5,184.5C 323.376,184.369 324.043,184.702 324.5,185.5C 323.209,187.959 321.209,189.459 318.5,190C 319.167,190.333 319.833,190.667 320.5,191C 316.833,191.333 313.167,191.667 309.5,192C 308.62,193.356 308.286,194.856 308.5,196.5C 311.74,196.232 314.906,195.566 318,194.5C 318.772,194.645 319.439,194.978 320,195.5C 322.022,194.214 324.189,193.214 326.5,192.5C 327.696,191.441 328.363,190.107 328.5,188.5C 323.911,176.143 320.578,163.477 318.5,150.5 Z"/></g>
<g><path style="opacity:0.898" fill="#6f633f" d="M 194.5,195.5 C 194.918,196.222 195.584,196.722 196.5,197C 195.253,198.458 195.253,199.958 196.5,201.5C 203.191,202.757 209.858,202.757 216.5,201.5C 215.653,202.966 214.32,203.8 212.5,204C 207.5,204.667 202.5,204.667 197.5,204C 193.312,203.096 191.478,200.596 192,196.5C 192.671,195.748 193.504,195.414 194.5,195.5 Z"/></g>
<g><path style="opacity:1" fill="#a98f5e" d="M 300.5,179.5 C 300.416,183.331 301.083,186.998 302.5,190.5C 302.557,191.609 302.89,192.609 303.5,193.5C 303.155,196.198 301.822,198.198 299.5,199.5C 299.44,198.957 299.107,198.624 298.5,198.5C 296.695,199.472 295.028,200.639 293.5,202C 287.804,202.83 282.137,202.663 276.5,201.5C 276.167,200.833 275.833,200.167 275.5,199.5C 276.867,198.16 278.2,196.827 279.5,195.5C 282.628,194.368 285.962,193.535 289.5,193C 291.066,192.392 292.4,191.558 293.5,190.5C 294.947,189.866 295.613,188.699 295.5,187C 294.279,184.165 294.279,181.332 295.5,178.5C 297.216,178.629 298.883,178.962 300.5,179.5 Z"/></g>
<g><path style="opacity:0.979" fill="#937d51" d="M 269.5,163.5 C 270.494,173.653 270.828,183.986 270.5,194.5C 270.872,197.923 269.539,200.423 266.5,202C 260.175,202.5 253.842,202.666 247.5,202.5C 246.265,202.279 245.265,201.612 244.5,200.5C 240.886,203.928 236.553,205.262 231.5,204.5C 227.744,204.537 224.078,204.037 220.5,203C 219.299,202.097 218.465,200.931 218,199.5C 217.722,200.416 217.222,201.082 216.5,201.5C 209.858,202.757 203.191,202.757 196.5,201.5C 195.253,199.958 195.253,198.458 196.5,197C 195.584,196.722 194.918,196.222 194.5,195.5C 198.846,195.666 203.179,195.499 207.5,195C 208.416,194.722 209.082,194.222 209.5,193.5C 210.833,192.833 210.833,192.167 209.5,191.5C 209.5,190.833 209.5,190.167 209.5,189.5C 209.5,188.167 209.5,186.833 209.5,185.5C 210.302,186.952 210.802,188.618 211,190.5C 211.725,188.842 212.892,188.342 214.5,189C 215.311,192.135 216.977,194.635 219.5,196.5C 225.271,197.113 230.604,196.446 235.5,194.5C 236.338,194.158 236.672,193.492 236.5,192.5C 237.21,190.588 238.377,188.921 240,187.5C 241.669,190.465 243.335,193.465 245,196.5C 250.417,195.691 255.917,195.191 261.5,195C 262.416,194.722 263.082,194.222 263.5,193.5C 264.5,193.167 265.167,192.5 265.5,191.5C 266.833,191.5 268.167,191.5 269.5,191.5C 269.5,182.167 269.5,172.833 269.5,163.5 Z"/></g>
<g><path style="opacity:0.035" fill="#39321c" d="M 235.5,194.5 C 230.604,196.446 225.271,197.113 219.5,196.5C 224.732,195.79 230.065,195.123 235.5,194.5 Z"/></g>
<g><path style="opacity:0.4" fill="#6e5f3f" d="M 270.5,194.5 C 271.458,194.953 272.292,195.619 273,196.5C 275.041,195.577 277.208,195.244 279.5,195.5C 278.2,196.827 276.867,198.16 275.5,199.5C 275.833,200.167 276.167,200.833 276.5,201.5C 282.137,202.663 287.804,202.83 293.5,202C 295.028,200.639 296.695,199.472 298.5,198.5C 299.107,198.624 299.44,198.957 299.5,199.5C 295.615,203.629 290.781,205.296 285,204.5C 279.987,205.22 275.654,203.886 272,200.5C 270.681,202.487 268.848,203.654 266.5,204C 260.833,204.667 255.167,204.667 249.5,204C 248.584,203.722 247.918,203.222 247.5,202.5C 253.842,202.666 260.175,202.5 266.5,202C 269.539,200.423 270.872,197.923 270.5,194.5 Z"/></g>
<g><path style="opacity:0.925" fill="#746441" d="M 150.5,196.5 C 152.358,198.774 152.691,201.274 151.5,204C 153.746,203.572 156.079,203.072 158.5,202.5C 159.726,202.52 160.726,202.853 161.5,203.5C 157.033,204.577 152.699,205.91 148.5,207.5C 148.5,209.833 148.5,212.167 148.5,214.5C 152.926,219.688 151.593,223.021 144.5,224.5C 144.5,225.5 144.5,226.5 144.5,227.5C 143.5,227.5 142.5,227.5 141.5,227.5C 141.859,225.629 142.859,224.129 144.5,223C 143.207,222.51 141.873,222.343 140.5,222.5C 139.466,218.757 138.132,215.09 136.5,211.5C 125.674,210.833 115.008,210.167 104.5,209.5C 112.833,209.5 121.167,209.5 129.5,209.5C 132.214,209.25 134.881,209.083 137.5,209C 138.961,212.732 140.794,216.232 143,219.5C 144.892,217.113 146.058,214.447 146.5,211.5C 146.5,211.167 146.5,210.833 146.5,210.5C 146.5,209.5 146.5,208.5 146.5,207.5C 147.013,205.146 148.179,203.146 150,201.5C 150.494,199.866 150.66,198.199 150.5,196.5 Z"/></g>
<g><path style="opacity:0.459" fill="#897751" d="M 369.5,157.5 C 370.827,161.951 371.494,166.784 371.5,172C 371.333,176.833 371.167,181.667 371,186.5C 369.078,191.676 367.578,197.676 366.5,204.5C 367.167,204.5 367.5,204.833 367.5,205.5C 367.5,206.167 367.833,206.5 368.5,206.5C 369.167,206.5 369.5,206.167 369.5,205.5C 370.693,205.97 371.36,206.97 371.5,208.5C 371.48,209.726 371.147,210.726 370.5,211.5C 369.356,210.817 369.356,211.151 370.5,212.5C 369.53,216.931 371.197,219.265 375.5,219.5C 374.891,216.122 376.224,214.122 379.5,213.5C 378.774,216.179 377.941,218.846 377,221.5C 371.462,222.415 371.462,224.081 377,226.5C 380.425,225.018 383.925,224.184 387.5,224C 390.434,228.464 391.934,233.297 392,238.5C 391.329,239.252 390.496,239.586 389.5,239.5C 389.5,239.167 389.5,238.833 389.5,238.5C 388.356,234.64 387.689,230.64 387.5,226.5C 383.117,227.046 378.783,227.546 374.5,228C 371.629,226.629 369.629,224.463 368.5,221.5C 367.264,220.754 365.93,220.421 364.5,220.5C 366.551,216.41 367.385,212.077 367,207.5C 365.307,206.816 363.807,205.816 362.5,204.5C 360.088,203.63 357.421,203.63 354.5,204.5C 354.484,202.516 355.484,201.516 357.5,201.5C 360.066,202.368 362.566,203.368 365,204.5C 367.142,195.597 368.808,186.597 370,177.5C 370.756,170.783 370.589,164.117 369.5,157.5 Z"/></g>
<g><path style="opacity:1" fill="#baac77" d="M 342.5,211.5 C 343.952,212.302 345.618,212.802 347.5,213C 346.167,213.333 344.833,213.667 343.5,214C 346.659,214.011 349.493,214.845 352,216.5C 353.243,215.664 354.41,215.997 355.5,217.5C 354.272,219.321 352.606,220.321 350.5,220.5C 350.162,223.157 350.829,225.49 352.5,227.5C 345.692,228.034 339.025,229.2 332.5,231C 331.663,232.011 331.33,233.178 331.5,234.5C 324.105,242.205 322.772,250.872 327.5,260.5C 325.484,259.514 324.151,257.847 323.5,255.5C 322.673,251.541 322.173,247.541 322,243.5C 321.311,244.357 320.478,245.023 319.5,245.5C 317.698,244.014 315.698,243.014 313.5,242.5C 313.575,239.794 313.908,237.127 314.5,234.5C 310.31,235.265 306.643,233.931 303.5,230.5C 299.19,233.076 298.19,236.409 300.5,240.5C 298.11,240.315 297.11,238.982 297.5,236.5C 298.164,232.675 299.331,229.008 301,225.5C 304.944,224.739 308.777,225.405 312.5,227.5C 315.327,223.841 318.66,220.674 322.5,218C 317.07,209.949 319.07,204.949 328.5,203C 330.167,202.333 331.833,202.333 333.5,203C 335.167,206 336.833,209 338.5,212C 339.928,212.579 341.262,212.412 342.5,211.5 Z M 316.5,237.5 C 317.833,237.5 319.167,237.5 320.5,237.5C 320.778,239.346 320.111,240.68 318.5,241.5C 316.889,240.68 316.222,239.346 316.5,237.5 Z"/></g>
<g><path style="opacity:1" fill="#b39c64" d="M 161.5,203.5 C 162.653,205.807 163.82,208.14 165,210.5C 165.816,211.823 166.983,212.489 168.5,212.5C 172.235,214.376 175.902,216.543 179.5,219C 181.833,219.333 184.167,219.667 186.5,220C 187.553,221.749 187.22,223.249 185.5,224.5C 185.5,223.5 185.5,222.5 185.5,221.5C 184.167,221.5 182.833,221.5 181.5,221.5C 181.229,223.38 181.896,224.713 183.5,225.5C 185.084,226.382 186.751,227.215 188.5,228C 188.167,228.333 187.833,228.667 187.5,229C 188.738,228.923 189.738,229.089 190.5,229.5C 189.092,230.243 187.759,231.077 186.5,232C 187.337,233.011 187.67,234.178 187.5,235.5C 188.5,235.5 189.5,235.5 190.5,235.5C 190.737,236.791 190.404,237.791 189.5,238.5C 180.608,229.542 170.608,228.208 159.5,234.5C 156.951,234.441 154.951,235.441 153.5,237.5C 152.304,237.154 152.304,236.654 153.5,236C 152.551,235.383 151.718,235.549 151,236.5C 150.626,235.584 150.126,234.75 149.5,234C 147.153,233.666 144.819,233.833 142.5,234.5C 142.5,235.5 142.5,236.5 142.5,237.5C 140.533,237.261 138.699,237.594 137,238.5C 135.667,235.833 134.333,235.833 133,238.5C 131.786,236.951 130.286,235.785 128.5,235C 130.278,232.865 130.945,230.365 130.5,227.5C 134.371,227.94 138.038,227.94 141.5,227.5C 142.5,227.5 143.5,227.5 144.5,227.5C 144.5,226.5 144.5,225.5 144.5,224.5C 151.593,223.021 152.926,219.688 148.5,214.5C 148.5,212.167 148.5,209.833 148.5,207.5C 152.699,205.91 157.033,204.577 161.5,203.5 Z"/></g>
<g><path style="opacity:0.998" fill="#b09861" d="M 389.5,238.5 C 384.316,237.727 379.983,239.227 376.5,243C 377.833,244.333 377.833,245.667 376.5,247C 379.992,249.708 379.992,252.708 376.5,256C 377.888,258.497 379.721,259.33 382,258.5C 383.807,260.32 385.973,261.487 388.5,262C 389.022,262.561 389.355,263.228 389.5,264C 388.128,266.515 387.128,269.182 386.5,272C 383.716,271.081 380.716,270.581 377.5,270.5C 377.379,266.893 379.045,264.727 382.5,264C 381.333,260.833 379.833,260.667 378,263.5C 376.076,261.991 374.909,259.991 374.5,257.5C 373.833,257.167 373.167,256.833 372.5,256.5C 371.287,256.747 370.62,257.414 370.5,258.5C 369.5,258.5 368.5,258.5 367.5,258.5C 367.551,260.57 366.885,262.403 365.5,264C 365.888,265.951 366.888,267.451 368.5,268.5C 369.386,267.675 369.719,266.675 369.5,265.5C 370.833,265.5 372.167,265.5 373.5,265.5C 373.5,266.5 373.5,267.5 373.5,268.5C 372.5,268.5 371.5,268.5 370.5,268.5C 370.5,269.5 370.5,270.5 370.5,271.5C 375.532,271.332 375.699,272.332 371,274.5C 370.517,275.448 370.351,276.448 370.5,277.5C 369.5,277.5 368.5,277.5 367.5,277.5C 367.216,279.415 367.549,281.081 368.5,282.5C 369.958,285.39 370.791,288.39 371,291.5C 366.704,294.929 361.871,296.763 356.5,297C 354.481,293.945 352.648,290.778 351,287.5C 346.879,288.139 342.713,288.805 338.5,289.5C 338.058,290.739 337.391,291.739 336.5,292.5C 336.5,290.833 336.5,289.167 336.5,287.5C 342.121,286.646 347.788,286.313 353.5,286.5C 353.334,281.821 353.501,277.155 354,272.5C 355.399,271.773 356.899,271.273 358.5,271C 355.833,270.333 355.833,269.667 358.5,269C 352.996,270.376 347.329,271.376 341.5,272C 339.396,272.489 339.062,273.655 340.5,275.5C 339.564,279.128 337.898,279.461 335.5,276.5C 334.5,273.833 333.5,273.833 332.5,276.5C 331.234,275.91 329.901,275.41 328.5,275C 328.833,274.667 329.167,274.333 329.5,274C 332.623,273.794 335.623,273.127 338.5,272C 335.036,269.758 331.703,267.258 328.5,264.5C 327.571,263.311 327.238,261.978 327.5,260.5C 335.014,269.768 344.347,271.935 355.5,267C 367.446,255.593 367.446,244.259 355.5,233C 347.18,229.334 339.18,229.834 331.5,234.5C 331.33,233.178 331.663,232.011 332.5,231C 339.025,229.2 345.692,228.034 352.5,227.5C 350.829,225.49 350.162,223.157 350.5,220.5C 352.606,220.321 354.272,219.321 355.5,217.5C 354.41,215.997 353.243,215.664 352,216.5C 349.493,214.845 346.659,214.011 343.5,214C 344.833,213.667 346.167,213.333 347.5,213C 345.618,212.802 343.952,212.302 342.5,211.5C 345.252,211.578 347.918,211.745 350.5,212C 351.752,209.367 353.086,206.867 354.5,204.5C 357.421,203.63 360.088,203.63 362.5,204.5C 363.807,205.816 365.307,206.816 367,207.5C 367.385,212.077 366.551,216.41 364.5,220.5C 365.93,220.421 367.264,220.754 368.5,221.5C 369.629,224.463 371.629,226.629 374.5,228C 378.783,227.546 383.117,227.046 387.5,226.5C 387.689,230.64 388.356,234.64 389.5,238.5 Z M 353.5,221.5 C 355.346,221.222 356.68,221.889 357.5,223.5C 356.311,224.429 354.978,224.762 353.5,224.5C 353.5,223.5 353.5,222.5 353.5,221.5 Z M 370.5,258.5 C 372.912,258.694 373.912,260.027 373.5,262.5C 370.046,262.733 369.046,261.4 370.5,258.5 Z"/></g>
<g><path style="opacity:0.992" fill="#a38d5d" d="M 141.5,227.5 C 138.038,227.94 134.371,227.94 130.5,227.5C 130.945,230.365 130.278,232.865 128.5,235C 130.286,235.785 131.786,236.951 133,238.5C 134.333,235.833 135.667,235.833 137,238.5C 138.699,237.594 140.533,237.261 142.5,237.5C 142.5,236.5 142.5,235.5 142.5,234.5C 144.819,233.833 147.153,233.666 149.5,234C 150.126,234.75 150.626,235.584 151,236.5C 151.718,235.549 152.551,235.383 153.5,236C 152.304,236.654 152.304,237.154 153.5,237.5C 154.951,235.441 156.951,234.441 159.5,234.5C 150.281,245.764 150.947,256.597 161.5,267C 165.253,268.989 169.253,269.822 173.5,269.5C 172.398,271.092 173.065,271.925 175.5,272C 172.522,272.696 169.522,273.196 166.5,273.5C 166.5,274.5 166.5,275.5 166.5,276.5C 165.009,279.091 162.675,280.091 159.5,279.5C 159.326,277.139 158.993,274.806 158.5,272.5C 160.977,272.949 162.977,272.283 164.5,270.5C 156.167,265.748 151.501,258.748 150.5,249.5C 150.753,247.142 151.086,244.808 151.5,242.5C 147.378,242.991 143.378,243.991 139.5,245.5C 138.135,248.687 137.301,252.02 137,255.5C 136.23,254.402 135.397,254.402 134.5,255.5C 134.666,251.486 134.499,247.486 134,243.5C 131.239,242.204 128.405,241.037 125.5,240C 124.973,234.657 126.306,229.657 129.5,225C 133.609,225.086 137.609,225.92 141.5,227.5 Z M 144.5,237.5 C 148.905,237.7 149.405,239.033 146,241.5C 143.5,240.842 143,239.509 144.5,237.5 Z M 160.5,274.5 C 161.5,274.5 162.5,274.5 163.5,274.5C 163.5,275.833 163.5,277.167 163.5,278.5C 162.5,278.5 161.5,278.5 160.5,278.5C 160.5,277.167 160.5,275.833 160.5,274.5 Z"/></g>
<g><path style="opacity:0.995" fill="#b0975f" d="M 166.5,276.5 C 165.108,279.025 165.442,281.192 167.5,283C 166.377,284.044 165.044,284.71 163.5,285C 167.356,285.177 171.023,285.677 174.5,286.5C 169.901,286.8 165.401,286.467 161,285.5C 163.741,295.734 160.408,298.068 151,292.5C 150.812,290.524 150.979,288.524 151.5,286.5C 151.36,284.97 150.693,283.97 149.5,283.5C 149.611,282.883 149.944,282.383 150.5,282C 146.667,279.5 143.5,276.333 141,272.5C 137.368,274.777 133.535,275.444 129.5,274.5C 127.542,270.791 125.875,266.957 124.5,263C 127.628,260.265 130.962,257.765 134.5,255.5C 135.397,254.402 136.23,254.402 137,255.5C 137.301,252.02 138.135,248.687 139.5,245.5C 143.378,243.991 147.378,242.991 151.5,242.5C 151.086,244.808 150.753,247.142 150.5,249.5C 151.501,258.748 156.167,265.748 164.5,270.5C 162.977,272.283 160.977,272.949 158.5,272.5C 158.993,274.806 159.326,277.139 159.5,279.5C 162.675,280.091 165.009,279.091 166.5,276.5 Z"/></g>
<g><path style="opacity:0.999" fill="#bbad75" d="M 217.5,258.5 C 217.5,258.833 217.5,259.167 217.5,259.5C 215.611,260.38 213.611,260.38 211.5,259.5C 211.682,261.591 211.348,263.591 210.5,265.5C 212.234,267.234 213.568,269.234 214.5,271.5C 215.387,267.814 216.887,264.481 219,261.5C 220.699,260.594 222.533,260.261 224.5,260.5C 224.975,263.313 223.975,265.313 221.5,266.5C 222.677,264.897 222.511,263.564 221,262.5C 219.022,266.288 217.189,270.121 215.5,274C 211.467,273.874 207.467,273.54 203.5,273C 201,275.5 198.5,278 196,280.5C 196.471,283.823 197.305,287.157 198.5,290.5C 198.41,292.425 197.41,293.592 195.5,294C 191.85,295.445 188.183,296.445 184.5,297C 182.35,293.853 180.35,290.687 178.5,287.5C 177.041,287.567 175.708,287.234 174.5,286.5C 171.023,285.677 167.356,285.177 163.5,285C 165.044,284.71 166.377,284.044 167.5,283C 165.442,281.192 165.108,279.025 166.5,276.5C 166.5,275.5 166.5,274.5 166.5,273.5C 169.522,273.196 172.522,272.696 175.5,272C 173.065,271.925 172.398,271.092 173.5,269.5C 185.919,268.745 192.252,262.079 192.5,249.5C 192.104,245.648 191.104,241.981 189.5,238.5C 190.404,237.791 190.737,236.791 190.5,235.5C 189.5,235.5 188.5,235.5 187.5,235.5C 187.67,234.178 187.337,233.011 186.5,232C 187.759,231.077 189.092,230.243 190.5,229.5C 189.738,229.089 188.738,228.923 187.5,229C 187.833,228.667 188.167,228.333 188.5,228C 186.751,227.215 185.084,226.382 183.5,225.5C 183.842,224.662 184.508,224.328 185.5,224.5C 187.22,223.249 187.553,221.749 186.5,220C 184.167,219.667 181.833,219.333 179.5,219C 175.902,216.543 172.235,214.376 168.5,212.5C 171.365,211.217 174.365,211.217 177.5,212.5C 179.587,209.327 181.421,205.994 183,202.5C 183.561,201.978 184.228,201.645 185,201.5C 188.833,203 192.667,204.5 196.5,206C 197.604,210.025 196.938,213.859 194.5,217.5C 197.833,220.5 201.167,223.5 204.5,226.5C 207.761,225.018 211.095,224.185 214.5,224C 216.756,227.845 218.756,231.845 220.5,236C 218.375,238.992 215.542,241.158 212,242.5C 211.8,246.753 211.3,250.92 210.5,255C 212.577,256.705 214.91,257.872 217.5,258.5 Z M 198.5,258.5 C 199.995,258.415 200.995,259.081 201.5,260.5C 200.68,262.111 199.346,262.778 197.5,262.5C 197.433,261.041 197.766,259.708 198.5,258.5 Z"/></g>
<g><path style="opacity:0.994" fill="#cac78c" d="M 268.5,244.5 C 268.119,246.942 268.786,247.609 270.5,246.5C 274.715,247.73 275.048,248.897 271.5,250C 274.167,252 274.167,254 271.5,256C 272.34,257.666 271.84,257.833 270,256.5C 268.584,257.718 268.751,259.051 270.5,260.5C 270.392,261.442 270.059,262.275 269.5,263C 271.081,263.707 272.581,264.54 274,265.5C 276.477,262.875 278.31,263.375 279.5,267C 278.883,270.986 277.55,271.319 275.5,268C 274.207,267.51 272.873,267.343 271.5,267.5C 263.677,263.9 255.677,263.566 247.5,266.5C 244.282,266.349 243.949,265.516 246.5,264C 245.167,263.667 243.833,263.333 242.5,263C 242.957,262.586 243.291,262.086 243.5,261.5C 240.608,257.159 241.108,253.493 245,250.5C 245.49,249.207 245.657,247.873 245.5,246.5C 246.873,246.657 248.207,246.49 249.5,246C 250.738,245.31 250.738,244.81 249.5,244.5C 249.467,240.131 249.8,235.798 250.5,231.5C 256.206,231.171 261.872,231.505 267.5,232.5C 268.433,236.429 268.766,240.429 268.5,244.5 Z M 257.5,251.5 C 261.161,251.35 262.161,252.85 260.5,256C 256.707,256.487 255.707,254.987 257.5,251.5 Z"/></g>
<g><path style="opacity:0.996" fill="#a28a5b" d="M 389.5,238.5 C 389.5,238.833 389.5,239.167 389.5,239.5C 387.024,240.722 384.691,242.222 382.5,244C 383.769,247.712 383.769,251.378 382.5,255C 385.554,257.194 388.888,258.861 392.5,260C 393.022,260.561 393.355,261.228 393.5,262C 392,265.833 390.5,269.667 389,273.5C 387.938,274.097 386.772,274.43 385.5,274.5C 382.49,273.652 379.49,273.152 376.5,273C 373.223,275.766 370.557,278.933 368.5,282.5C 367.549,281.081 367.216,279.415 367.5,277.5C 368.5,277.5 369.5,277.5 370.5,277.5C 370.351,276.448 370.517,275.448 371,274.5C 375.699,272.332 375.532,271.332 370.5,271.5C 370.5,270.5 370.5,269.5 370.5,268.5C 371.5,268.5 372.5,268.5 373.5,268.5C 373.5,267.5 373.5,266.5 373.5,265.5C 372.167,265.5 370.833,265.5 369.5,265.5C 369.719,266.675 369.386,267.675 368.5,268.5C 366.888,267.451 365.888,265.951 365.5,264C 366.885,262.403 367.551,260.57 367.5,258.5C 368.5,258.5 369.5,258.5 370.5,258.5C 370.62,257.414 371.287,256.747 372.5,256.5C 373.167,256.833 373.833,257.167 374.5,257.5C 374.909,259.991 376.076,261.991 378,263.5C 379.833,260.667 381.333,260.833 382.5,264C 379.045,264.727 377.379,266.893 377.5,270.5C 380.716,270.581 383.716,271.081 386.5,272C 387.128,269.182 388.128,266.515 389.5,264C 389.355,263.228 389.022,262.561 388.5,262C 385.973,261.487 383.807,260.32 382,258.5C 379.721,259.33 377.888,258.497 376.5,256C 379.992,252.708 379.992,249.708 376.5,247C 377.833,245.667 377.833,244.333 376.5,243C 379.983,239.227 384.316,237.727 389.5,238.5 Z M 370.5,258.5 C 369.046,261.4 370.046,262.733 373.5,262.5C 373.912,260.027 372.912,258.694 370.5,258.5 Z"/></g>
<g><path style="opacity:0.999" fill="#c9c387" d="M 298.5,260.5 C 297.833,260.5 297.5,260.833 297.5,261.5C 296.522,261.811 295.855,262.478 295.5,263.5C 296.661,266.358 297.994,269.025 299.5,271.5C 299.286,273.144 299.62,274.644 300.5,276C 304.06,277.237 307.727,277.737 311.5,277.5C 313.333,282.608 313.999,287.942 313.5,293.5C 313.389,294.117 313.056,294.617 312.5,295C 308.459,295.173 304.459,295.673 300.5,296.5C 299.122,300.803 297.456,304.97 295.5,309C 297.293,311.795 299.46,314.295 302,316.5C 302.881,319.886 301.714,322.22 298.5,323.5C 296.289,323.967 294.289,324.967 292.5,326.5C 292.709,327.086 293.043,327.586 293.5,328C 291.455,328.49 289.455,328.323 287.5,327.5C 285.213,326.381 283.379,324.715 282,322.5C 277.958,325.439 273.458,327.106 268.5,327.5C 268.666,331.514 268.499,335.514 268,339.5C 267.5,340 267,340.5 266.5,341C 261.177,341.499 255.844,341.666 250.5,341.5C 249.771,336.87 249.437,332.203 249.5,327.5C 248.365,326.526 247.365,325.359 246.5,324C 243.041,323.137 239.707,321.97 236.5,320.5C 238.274,319.813 239.941,318.98 241.5,318C 240.484,317.481 239.818,316.647 239.5,315.5C 240.694,313.109 241.694,310.776 242.5,308.5C 245.534,306.898 248.201,307.231 250.5,309.5C 256.5,310.833 262.5,310.833 268.5,309.5C 269.735,306.956 270.901,306.956 272,309.5C 273.333,308.833 274.333,307.833 275,306.5C 275.667,307.833 276.333,307.833 277,306.5C 276.952,303.432 278.119,301.098 280.5,299.5C 281.429,300.689 281.762,302.022 281.5,303.5C 282.833,303.5 284.167,303.5 285.5,303.5C 285.657,302.127 285.49,300.793 285,299.5C 283.086,298.586 281.919,297.086 281.5,295C 282.597,289.54 282.764,284.04 282,278.5C 281.329,277.748 280.496,277.414 279.5,277.5C 277.772,273.357 275.106,270.024 271.5,267.5C 272.873,267.343 274.207,267.51 275.5,268C 277.55,271.319 278.883,270.986 279.5,267C 278.31,263.375 276.477,262.875 274,265.5C 272.581,264.54 271.081,263.707 269.5,263C 270.059,262.275 270.392,261.442 270.5,260.5C 268.751,259.051 268.584,257.718 270,256.5C 271.84,257.833 272.34,257.666 271.5,256C 274.167,254 274.167,252 271.5,250C 275.048,248.897 274.715,247.73 270.5,246.5C 268.786,247.609 268.119,246.942 268.5,244.5C 273.045,245.571 277.378,247.238 281.5,249.5C 284.022,247.144 286.688,244.977 289.5,243C 290.833,242.333 292.167,242.333 293.5,243C 296.333,245.833 299.167,248.667 302,251.5C 302.667,252.833 302.667,254.167 302,255.5C 300.198,256.789 299.031,258.456 298.5,260.5 Z M 290.5,283.5 C 292.759,284.344 293.759,286.011 293.5,288.5C 288.516,288.856 287.516,287.189 290.5,283.5 Z M 257.5,316.5 C 262.049,316.932 262.549,318.599 259,321.5C 256.491,320.347 255.991,318.68 257.5,316.5 Z"/></g>
<g><path style="opacity:0.997" fill="#beaf75" d="M 327.5,260.5 C 327.238,261.978 327.571,263.311 328.5,264.5C 331.703,267.258 335.036,269.758 338.5,272C 335.623,273.127 332.623,273.794 329.5,274C 329.167,274.333 328.833,274.667 328.5,275C 329.901,275.41 331.234,275.91 332.5,276.5C 333.74,278.985 334.74,278.985 335.5,276.5C 337.898,279.461 339.564,279.128 340.5,275.5C 339.062,273.655 339.396,272.489 341.5,272C 347.329,271.376 352.996,270.376 358.5,269C 355.833,269.667 355.833,270.333 358.5,271C 356.899,271.273 355.399,271.773 354,272.5C 353.501,277.155 353.334,281.821 353.5,286.5C 347.788,286.313 342.121,286.646 336.5,287.5C 336.5,289.167 336.5,290.833 336.5,292.5C 336.337,295.183 335.004,296.85 332.5,297.5C 328.803,296.434 325.136,295.268 321.5,294C 320.643,293.311 319.977,292.478 319.5,291.5C 320.347,288.446 321.347,285.446 322.5,282.5C 319.529,279.192 316.529,275.859 313.5,272.5C 310.568,273.699 307.568,274.699 304.5,275.5C 302.213,274.873 300.546,273.54 299.5,271.5C 298.626,268.211 297.959,264.877 297.5,261.5C 298.167,261.5 298.5,261.167 298.5,260.5C 301.343,259.828 303.843,258.495 306,256.5C 306.667,252.167 306.667,247.833 306,243.5C 304.124,242.391 302.291,241.391 300.5,240.5C 298.19,236.409 299.19,233.076 303.5,230.5C 306.643,233.931 310.31,235.265 314.5,234.5C 313.908,237.127 313.575,239.794 313.5,242.5C 315.698,243.014 317.698,244.014 319.5,245.5C 320.478,245.023 321.311,244.357 322,243.5C 322.173,247.541 322.673,251.541 323.5,255.5C 324.151,257.847 325.484,259.514 327.5,260.5 Z M 335.5,276.5 C 334.74,278.985 333.74,278.985 332.5,276.5C 333.5,273.833 334.5,273.833 335.5,276.5 Z"/></g>
<g><path style="opacity:0.024" fill="#5c5935" d="M 311.5,277.5 C 312.75,277.577 313.583,278.244 314,279.5C 314.815,284.352 314.648,289.019 313.5,293.5C 313.999,287.942 313.333,282.608 311.5,277.5 Z"/></g>
<g><path style="opacity:0.912" fill="#9b8b63" d="M 149.5,283.5 C 150.693,283.97 151.36,284.97 151.5,286.5C 150.979,288.524 150.812,290.524 151,292.5C 160.408,298.068 163.741,295.734 161,285.5C 165.401,286.467 169.901,286.8 174.5,286.5C 175.708,287.234 177.041,287.567 178.5,287.5C 174.688,288.324 170.688,288.824 166.5,289C 165.206,291.087 164.039,293.254 163,295.5C 162.196,296.804 161.029,297.471 159.5,297.5C 155.839,296.168 152.172,294.835 148.5,293.5C 148.167,292.667 147.833,291.833 147.5,291C 148.071,288.456 148.738,285.956 149.5,283.5 Z"/></g>
<g><path style="opacity:1" fill="#c1ba82" d="M 249.5,244.5 C 250.738,244.81 250.738,245.31 249.5,246C 248.207,246.49 246.873,246.657 245.5,246.5C 245.657,247.873 245.49,249.207 245,250.5C 241.108,253.493 240.608,257.159 243.5,261.5C 243.291,262.086 242.957,262.586 242.5,263C 243.833,263.333 245.167,263.667 246.5,264C 243.949,265.516 244.282,266.349 247.5,266.5C 236.315,274.93 233.815,285.597 240,298.5C 247.083,307.748 256.25,310.582 267.5,307C 279.685,300.244 283.685,290.411 279.5,277.5C 280.496,277.414 281.329,277.748 282,278.5C 282.764,284.04 282.597,289.54 281.5,295C 281.919,297.086 283.086,298.586 285,299.5C 285.49,300.793 285.657,302.127 285.5,303.5C 284.167,303.5 282.833,303.5 281.5,303.5C 281.762,302.022 281.429,300.689 280.5,299.5C 278.119,301.098 276.952,303.432 277,306.5C 276.333,307.833 275.667,307.833 275,306.5C 274.333,307.833 273.333,308.833 272,309.5C 270.901,306.956 269.735,306.956 268.5,309.5C 262.5,310.833 256.5,310.833 250.5,309.5C 248.201,307.231 245.534,306.898 242.5,308.5C 241.694,310.776 240.694,313.109 239.5,315.5C 239.818,316.647 240.484,317.481 241.5,318C 239.941,318.98 238.274,319.813 236.5,320.5C 239.707,321.97 243.041,323.137 246.5,324C 247.365,325.359 248.365,326.526 249.5,327.5C 244.542,327.106 240.042,325.439 236,322.5C 233.833,324.667 231.667,326.833 229.5,329C 227.956,330.187 226.289,330.52 224.5,330C 220.907,326.915 217.907,323.415 215.5,319.5C 216.951,315.437 219.284,311.937 222.5,309C 219.561,304.958 217.894,300.458 217.5,295.5C 213.486,295.666 209.486,295.499 205.5,295C 205,294.5 204.5,294 204,293.5C 203.196,288.249 203.363,283.082 204.5,278C 208.863,277.631 213.196,277.131 217.5,276.5C 217.872,272.703 219.206,269.37 221.5,266.5C 223.975,265.313 224.975,263.313 224.5,260.5C 222.533,260.261 220.699,260.594 219,261.5C 216.887,264.481 215.387,267.814 214.5,271.5C 213.568,269.234 212.234,267.234 210.5,265.5C 211.348,263.591 211.682,261.591 211.5,259.5C 213.611,260.38 215.611,260.38 217.5,259.5C 218.833,259.167 218.833,258.833 217.5,258.5C 215.891,256.399 215.391,254.065 216,251.5C 218.128,248.37 220.628,245.537 223.5,243C 225.167,242.333 226.833,242.333 228.5,243C 231.312,244.977 233.978,247.144 236.5,249.5C 240.533,246.981 244.866,245.314 249.5,244.5 Z M 225.5,283.5 C 228.487,283.948 229.487,285.448 228.5,288C 223.522,288.864 222.522,287.364 225.5,283.5 Z"/></g>
<g><path style="opacity:0.847" fill="#8f8d6d" d="M 298.5,323.5 C 296.942,327.918 293.942,330.085 289.5,330C 288.619,329.292 287.953,328.458 287.5,327.5C 289.455,328.323 291.455,328.49 293.5,328C 293.043,327.586 292.709,327.086 292.5,326.5C 294.289,324.967 296.289,323.967 298.5,323.5 Z"/></g>
<g><path style="opacity:0.813" fill="#efeeed" d="M 344.5,361.5 C 343.609,362.11 342.609,362.443 341.5,362.5C 335.301,362.112 334.967,363.112 340.5,365.5C 343.097,365.721 343.097,366.221 340.5,367C 341.078,368.417 342.078,369.25 343.5,369.5C 344.301,371.042 344.634,372.708 344.5,374.5C 343.681,377.305 343.181,380.305 343,383.5C 341.351,384.885 340.184,386.551 339.5,388.5C 335.328,389.728 331.328,389.228 327.5,387C 326.915,385.698 326.249,384.531 325.5,383.5C 325.672,382.508 325.338,381.842 324.5,381.5C 324.5,381.167 324.5,380.833 324.5,380.5C 324.107,377.487 324.774,374.82 326.5,372.5C 327.167,372.5 327.833,372.5 328.5,372.5C 331.797,372.671 332.131,372.005 329.5,370.5C 328.893,370.624 328.56,370.957 328.5,371.5C 326.94,369.844 325.94,367.844 325.5,365.5C 325.737,364.209 325.404,363.209 324.5,362.5C 322.854,349.638 328.187,344.805 340.5,348C 344.205,351.651 345.539,356.151 344.5,361.5 Z"/></g>
<g><path style="opacity:0.906" fill="#ebebeb" d="M 66.5,348.5 C 66.5,361.167 66.5,373.833 66.5,386.5C 64.901,386.232 63.5676,386.566 62.5,387.5C 61.1667,387.5 59.8333,387.5 58.5,387.5C 58.1667,387.5 57.8333,387.5 57.5,387.5C 57.1667,383.5 56.8333,383.5 56.5,387.5C 52.6494,388.029 49.1494,387.362 46,385.5C 42.981,387.057 39.8144,388.057 36.5,388.5C 35.6618,388.158 35.3284,387.492 35.5,386.5C 35.3334,373.829 35.5001,361.162 36,348.5C 39.8915,346.933 43.5582,347.267 47,349.5C 48.8226,355.79 50.4892,362.123 52,368.5C 53.2883,361.721 54.9549,355.055 57,348.5C 60.1653,347.208 63.332,347.208 66.5,348.5 Z"/></g>
<g><path style="opacity:0.868" fill="#ededed" d="M 137.5,387.5 C 134.833,387.5 132.167,387.5 129.5,387.5C 129.598,385.447 128.931,383.78 127.5,382.5C 125.824,383.183 125.157,384.517 125.5,386.5C 123.167,386.5 120.833,386.5 118.5,386.5C 119.021,382.519 119.354,378.519 119.5,374.5C 120.245,366.116 121.412,357.783 123,349.5C 126.297,346.909 129.631,346.909 133,349.5C 134.89,362.129 136.39,374.796 137.5,387.5 Z"/></g>
<g><path style="opacity:0.765" fill="#ececeb" d="M 144.5,347.5 C 146.92,347.292 149.253,347.626 151.5,348.5C 152.499,358.478 152.832,368.478 152.5,378.5C 154.857,378.337 157.19,378.503 159.5,379C 160.056,379.383 160.389,379.883 160.5,380.5C 160.5,382.5 160.5,384.5 160.5,386.5C 160.5,386.833 160.5,387.167 160.5,387.5C 154.833,387.5 149.167,387.5 143.5,387.5C 143.813,383.958 143.479,380.625 142.5,377.5C 142.5,372.5 142.5,367.5 142.5,362.5C 143.266,357.637 143.932,352.637 144.5,347.5 Z"/></g>
<g><path style="opacity:0.894" fill="#e8e8e8" d="M 202.5,372.5 C 201.514,376.97 201.181,381.637 201.5,386.5C 199.167,386.5 196.833,386.5 194.5,386.5C 194.818,381.968 194.485,377.634 193.5,373.5C 192.291,374.027 191.625,375.527 191.5,378C 192.515,381.144 192.515,384.311 191.5,387.5C 188.615,387.194 185.948,387.527 183.5,388.5C 182.849,387.909 182.182,387.243 181.5,386.5C 180.833,383.023 180.166,379.689 179.5,376.5C 180.614,372.733 180.614,368.9 179.5,365C 181.119,359.379 182.453,353.712 183.5,348C 186.099,347.231 188.599,347.398 191,348.5C 192,367.167 193,367.167 194,348.5C 196.667,347.167 199.333,347.167 202,348.5C 202.5,356.493 202.666,364.493 202.5,372.5 Z"/></g>
<g><path style="opacity:0.901" fill="#f8f8f7" d="M 216.5,378.5 C 217.209,379.404 218.209,379.737 219.5,379.5C 219.5,369.167 219.5,358.833 219.5,348.5C 221.628,347.371 223.961,347.204 226.5,348C 227.252,348.671 227.586,349.504 227.5,350.5C 226.506,360.987 226.172,371.654 226.5,382.5C 225.662,382.842 225.328,383.508 225.5,384.5C 224.596,385.209 224.263,386.209 224.5,387.5C 222.279,388.292 220.279,388.626 218.5,388.5C 217.833,388.5 217.5,388.833 217.5,389.5C 215.636,389.679 213.636,389.179 211.5,388C 210.473,386.134 209.473,384.3 208.5,382.5C 208.5,382.167 208.5,381.833 208.5,381.5C 208.5,370.5 208.5,359.5 208.5,348.5C 210.966,347.366 213.633,347.199 216.5,348C 217.022,348.561 217.355,349.228 217.5,350C 216.539,359.459 216.205,368.959 216.5,378.5 Z"/></g>
<g><path style="opacity:0.867" fill="#f2f2f1" d="M 250.5,353.5 C 250.334,358.511 250.501,363.511 251,368.5C 251.383,369.056 251.883,369.389 252.5,369.5C 252.5,373.167 252.5,376.833 252.5,380.5C 252.5,380.833 252.5,381.167 252.5,381.5C 252.167,381.5 251.833,381.5 251.5,381.5C 250.662,381.842 250.328,382.508 250.5,383.5C 250.5,383.833 250.5,384.167 250.5,384.5C 249.5,384.833 248.833,385.5 248.5,386.5C 248.167,386.5 247.833,386.5 247.5,386.5C 242.833,386.5 238.167,386.5 233.5,386.5C 233.5,373.833 233.5,361.167 233.5,348.5C 237.311,347.355 241.311,347.188 245.5,348C 248.079,349.076 249.746,350.909 250.5,353.5 Z"/></g>
<g><path style="opacity:0.839" fill="#e9e9e9" d="M 293.5,377.5 C 293.658,380.902 293.324,384.236 292.5,387.5C 290.167,387.5 287.833,387.5 285.5,387.5C 284.25,382.36 283.584,382.36 283.5,387.5C 280.5,387.5 277.5,387.5 274.5,387.5C 274.737,386.209 274.404,385.209 273.5,384.5C 275.622,375.454 276.955,366.454 277.5,357.5C 278.691,354.363 279.691,351.197 280.5,348C 283.429,347.223 286.263,347.39 289,348.5C 291.151,358.074 292.651,367.741 293.5,377.5 Z M 285.5,387.5 C 284.833,387.5 284.167,387.5 283.5,387.5C 283.584,382.36 284.25,382.36 285.5,387.5 Z"/></g>
<g><path style="opacity:0.77" fill="#f3f3f2" d="M 319.5,379.5 C 318.596,380.209 318.263,381.209 318.5,382.5C 318.5,382.833 318.5,383.167 318.5,383.5C 317.833,383.5 317.5,383.833 317.5,384.5C 316.044,387.315 313.877,388.315 311,387.5C 306.648,390.959 303.148,389.959 300.5,384.5C 300.737,383.209 300.404,382.209 299.5,381.5C 299.333,370.495 299.5,359.495 300,348.5C 301.4,347.884 302.9,347.551 304.5,347.5C 309.121,348.027 313.788,348.194 318.5,348C 319.357,348.689 320.023,349.522 320.5,350.5C 319.526,360.113 319.192,369.78 319.5,379.5 Z"/></g>
<g><path style="opacity:0.826" fill="#f8f8f8" d="M 394.5,360.5 C 394.215,362.288 394.548,363.955 395.5,365.5C 397.214,364.391 397.881,365.058 397.5,367.5C 396.115,368.574 394.949,369.907 394,371.5C 393.517,370.552 393.351,369.552 393.5,368.5C 392.325,368.281 391.325,368.614 390.5,369.5C 390.624,370.107 390.957,370.44 391.5,370.5C 391.194,373.385 391.527,376.052 392.5,378.5C 393.167,378.5 393.5,378.833 393.5,379.5C 389.204,379.08 388.537,380.747 391.5,384.5C 388.874,385.449 386.208,385.449 383.5,384.5C 384.231,382.401 384.231,380.401 383.5,378.5C 382.749,379.376 382.249,380.376 382,381.5C 381.667,381.167 381.333,380.833 381,380.5C 380.506,382.134 380.34,383.801 380.5,385.5C 378.549,385.773 377.049,385.107 376,383.5C 375.5,371.838 375.333,360.171 375.5,348.5C 380.507,347.119 385.507,347.286 390.5,349C 393.966,352.04 395.3,355.874 394.5,360.5 Z"/></g>
<g><path style="opacity:0.877" fill="#f1f2f1" d="M 419.5,387.5 C 417.833,387.5 416.167,387.5 414.5,387.5C 413.074,386.659 411.74,385.659 410.5,384.5C 410.565,384.062 410.399,383.728 410,383.5C 409.487,384.527 408.987,385.527 408.5,386.5C 405.833,386.5 403.167,386.5 400.5,386.5C 400.5,384.5 400.5,382.5 400.5,380.5C 400.508,377.455 400.841,374.455 401.5,371.5C 401.5,370.5 401.5,369.5 401.5,368.5C 402.881,361.918 404.381,355.252 406,348.5C 408.667,347.167 411.333,347.167 414,348.5C 416.41,360.775 418.577,373.109 420.5,385.5C 420.137,386.183 419.804,386.85 419.5,387.5 Z"/></g>
<g><path style="opacity:0.829" fill="#ededed" d="M 441.5,379.5 C 441.5,382.167 441.5,384.833 441.5,387.5C 438.5,387.5 435.5,387.5 432.5,387.5C 430.393,386.532 428.059,386.198 425.5,386.5C 425.5,373.833 425.5,361.167 425.5,348.5C 428.582,346.931 431.415,347.265 434,349.5C 434.635,358.737 434.635,368.07 434,377.5C 436.607,378.123 439.107,378.79 441.5,379.5 Z"/></g>
<g><path style="opacity:0.883" fill="#dddddd" d="M 457.5,386.5 C 456.833,386.5 456.5,386.833 456.5,387.5C 455.5,387.5 454.5,387.5 453.5,387.5C 452.081,386.549 450.415,386.216 448.5,386.5C 448.5,373.833 448.5,361.167 448.5,348.5C 451.23,347.183 454.063,347.183 457,348.5C 457.5,361.162 457.667,373.829 457.5,386.5 Z"/></g>
<g><path style="opacity:0.933" fill="#e7e7e7" d="M 477.5,355.5 C 477.682,357.591 477.348,359.591 476.5,361.5C 477.275,363.396 478.275,365.063 479.5,366.5C 480.632,371.76 481.299,377.093 481.5,382.5C 481.5,383.833 481.5,385.167 481.5,386.5C 478.833,386.5 476.167,386.5 473.5,386.5C 473.737,385.209 473.404,384.209 472.5,383.5C 472.5,382.833 472.167,382.5 471.5,382.5C 465.854,387.334 462.854,386 462.5,378.5C 463.303,368.349 464.97,358.349 467.5,348.5C 474.705,345.757 478.038,348.09 477.5,355.5 Z"/></g>
<g><path style="opacity:0.063" fill="#575750" d="M 144.5,347.5 C 143.932,352.637 143.266,357.637 142.5,362.5C 142.334,357.821 142.501,353.155 143,348.5C 143.383,347.944 143.883,347.611 144.5,347.5 Z"/></g>
<g><path style="opacity:0.147" fill="#787878" d="M 448.5,348.5 C 448.5,361.167 448.5,373.833 448.5,386.5C 450.415,386.216 452.081,386.549 453.5,387.5C 451.5,387.5 449.5,387.5 447.5,387.5C 447.171,374.323 447.505,361.323 448.5,348.5 Z"/></g>
<g><path style="opacity:0.133" fill="#a9a7a2" d="M 208.5,348.5 C 208.5,359.5 208.5,370.5 208.5,381.5C 207.833,381.5 207.5,381.833 207.5,382.5C 206.791,383.404 205.791,383.737 204.5,383.5C 204.232,381.901 204.566,380.568 205.5,379.5C 206.117,379.611 206.617,379.944 207,380.5C 207.17,369.659 207.67,358.992 208.5,348.5 Z"/></g>
<g><path style="opacity:0.655" fill="#746b5d" d="M 96.5,347.5 C 96.5,350.5 96.5,353.5 96.5,356.5C 97.209,357.404 98.209,357.737 99.5,357.5C 99.5,359.833 99.5,362.167 99.5,364.5C 97.5853,364.784 95.9187,364.451 94.5,363.5C 95.8333,363.5 97.1667,363.5 98.5,363.5C 98.5,361.833 98.5,360.167 98.5,358.5C 95.3519,358.55 92.0186,358.217 88.5,357.5C 88.5,357.167 88.5,356.833 88.5,356.5C 89.1667,356.5 89.5,356.167 89.5,355.5C 90.4345,354.432 90.7678,353.099 90.5,351.5C 93.0495,351.561 94.5495,352.894 95,355.5C 95.1829,352.635 95.6829,349.969 96.5,347.5 Z"/></g>
<g><path style="opacity:0.992" fill="#f6f6f7" d="M 369.5,348.5 C 368.666,351.502 367.333,354.168 365.5,356.5C 364.167,356.833 364.167,357.167 365.5,357.5C 365.279,358.735 364.612,359.735 363.5,360.5C 364.63,361.622 365.297,362.956 365.5,364.5C 364.833,364.5 364.5,364.833 364.5,365.5C 363.508,372.648 363.175,379.981 363.5,387.5C 360.833,387.5 358.167,387.5 355.5,387.5C 355.828,376.986 355.494,366.653 354.5,356.5C 353.833,356.5 353.167,356.5 352.5,356.5C 351.833,356.5 351.167,356.5 350.5,356.5C 350.5,355.833 350.167,355.5 349.5,355.5C 349.5,355.167 349.5,354.833 349.5,354.5C 349.083,351.921 349.75,349.754 351.5,348C 357.582,347.212 363.582,347.379 369.5,348.5 Z"/></g>
<g><path style="opacity:0.063" fill="#1b1b1b" d="M 219.5,348.5 C 219.5,358.833 219.5,369.167 219.5,379.5C 218.209,379.737 217.209,379.404 216.5,378.5C 218.158,368.708 219.158,358.708 219.5,348.5 Z"/></g>
<g><path style="opacity:0.898" fill="#a38e69" d="M 88.5,355.5 C 88.5,355.833 88.5,356.167 88.5,356.5C 85.8333,356.833 85.8333,357.167 88.5,357.5C 92.0186,358.217 95.3519,358.55 98.5,358.5C 98.5,360.167 98.5,361.833 98.5,363.5C 97.1667,363.5 95.8333,363.5 94.5,363.5C 91.8911,364.21 89.5578,364.543 87.5,364.5C 85.8333,363.833 84.1667,363.167 82.5,362.5C 82.6716,361.508 82.3382,360.842 81.5,360.5C 81.5,359.833 81.5,359.167 81.5,358.5C 82.1667,358.5 82.5,358.167 82.5,357.5C 84.2821,356.28 86.2821,355.614 88.5,355.5 Z"/></g>
<g><path style="opacity:0.616" fill="#91836b" d="M 113.5,356.5 C 114.167,356.5 114.5,356.167 114.5,355.5C 115.151,354.909 115.818,354.243 116.5,353.5C 119.868,359.126 118.368,363.126 112,365.5C 111.667,366.5 111.333,367.5 111,368.5C 110.501,364.848 110.335,361.182 110.5,357.5C 111.791,357.737 112.791,357.404 113.5,356.5 Z"/></g>
<g><path style="opacity:0.342" fill="#8a8a8a" d="M 477.5,355.5 C 478.687,358.946 479.354,362.613 479.5,366.5C 478.275,365.063 477.275,363.396 476.5,361.5C 477.348,359.591 477.682,357.591 477.5,355.5 Z"/></g>
<g><path style="opacity:0.224" fill="#aa9e8b" d="M 369.5,348.5 C 369.938,350.638 370.105,352.972 370,355.5C 370.368,354.09 371.201,353.09 372.5,352.5C 373.833,355.833 373.833,359.167 372.5,362.5C 368.599,365.038 366.933,368.704 367.5,373.5C 366.512,378.64 366.179,383.974 366.5,389.5C 361.853,390.624 357.187,390.624 352.5,389.5C 352.5,390.5 352.5,391.5 352.5,392.5C 352.181,388.432 351.848,384.265 351.5,380C 352.227,378.601 352.727,377.101 353,375.5C 353.499,379.152 353.665,382.818 353.5,386.5C 353.833,387.5 354.5,388.167 355.5,388.5C 358.385,388.806 361.052,388.473 363.5,387.5C 363.175,379.981 363.508,372.648 364.5,365.5C 364.338,367.527 364.505,369.527 365,371.5C 366.807,369.26 366.974,366.927 365.5,364.5C 365.297,362.956 364.63,361.622 363.5,360.5C 364.612,359.735 365.279,358.735 365.5,357.5C 365.5,357.167 365.5,356.833 365.5,356.5C 367.333,354.168 368.666,351.502 369.5,348.5 Z"/></g>
<g><path style="opacity:0.188" fill="#aea192" d="M 250.5,353.5 C 251.317,355.969 251.817,358.635 252,361.5C 252.29,359.956 252.956,358.623 254,357.5C 255.659,360.945 255.826,364.445 254.5,368C 254.164,369.03 253.497,369.53 252.5,369.5C 251.883,369.389 251.383,369.056 251,368.5C 250.501,363.511 250.334,358.511 250.5,353.5 Z"/></g>
<g><path style="opacity:0.184" fill="#ac997b" d="M 349.5,354.5 C 349.5,354.833 349.5,355.167 349.5,355.5C 350.167,355.5 350.5,355.833 350.5,356.5C 351.167,356.5 351.833,356.5 352.5,356.5C 353.569,359.408 353.736,362.408 353,365.5C 349.259,363.965 347.426,365.299 347.5,369.5C 346.167,369.5 344.833,369.5 343.5,369.5C 342.078,369.25 341.078,368.417 340.5,367C 343.097,366.221 343.097,365.721 340.5,365.5C 341.11,364.609 341.443,363.609 341.5,362.5C 342.609,362.443 343.609,362.11 344.5,361.5C 345.266,359.316 345.933,356.982 346.5,354.5C 347.425,353.438 348.425,353.438 349.5,354.5 Z"/></g>
<g><path style="opacity:0.016" fill="#0e0600" d="M 354.5,356.5 C 355.494,366.653 355.828,376.986 355.5,387.5C 355.5,387.833 355.5,388.167 355.5,388.5C 354.5,388.167 353.833,387.5 353.5,386.5C 354.494,376.681 354.827,366.681 354.5,356.5 Z"/></g>
<g><path style="opacity:0.063" fill="#5a575b" d="M 394.5,360.5 C 395.404,361.209 395.737,362.209 395.5,363.5C 396.5,363.5 397.5,363.5 398.5,363.5C 398.232,365.099 398.566,366.432 399.5,367.5C 398.833,368.833 398.167,368.833 397.5,367.5C 397.881,365.058 397.214,364.391 395.5,365.5C 394.548,363.955 394.215,362.288 394.5,360.5 Z"/></g>
<g><path style="opacity:0.008" fill="#9a9a9a" d="M 371.5,364.5 C 373.225,364.843 373.725,365.843 373,367.5C 371.961,366.756 371.461,365.756 371.5,364.5 Z"/></g>
<g><path style="opacity:0.018" fill="#7e7e7e" d="M 309.5,367.5 C 310.809,371.351 310.809,375.351 309.5,379.5C 308.235,375.454 308.235,371.454 309.5,367.5 Z"/></g>
<g><path style="opacity:0.745" fill="#ededeb" d="M 89.5,355.5 C 89.1667,355.5 88.8333,355.5 88.5,355.5C 86.2821,355.614 84.2821,356.28 82.5,357.5C 81.794,356.443 81.4607,356.776 81.5,358.5C 81.5,359.167 81.5,359.833 81.5,360.5C 81.3284,361.492 81.6618,362.158 82.5,362.5C 84.1667,363.167 85.8333,363.833 87.5,364.5C 87.5,365.5 87.5,366.5 87.5,367.5C 87.5674,368.959 87.2341,370.292 86.5,371.5C 86.5,371.833 86.5,372.167 86.5,372.5C 84.2188,372.077 82.5521,372.744 81.5,374.5C 81.5,375.167 81.5,375.833 81.5,376.5C 81.4607,378.224 81.794,378.557 82.5,377.5C 82.8333,377.5 83.1667,377.5 83.5,377.5C 85.3691,378.165 87.3691,378.831 89.5,379.5C 90.1272,380.417 90.4606,381.417 90.5,382.5C 89.5489,383.919 89.2155,385.585 89.5,387.5C 83.8333,387.5 78.1667,387.5 72.5,387.5C 72.5,374.167 72.5,360.833 72.5,347.5C 77.8437,347.334 83.1771,347.501 88.5,348C 89.1667,348.667 89.8333,349.333 90.5,350C 89.5939,351.699 89.2606,353.533 89.5,355.5 Z"/></g>
<g><path style="opacity:0.682" fill="#ab9d82" d="M 324.5,362.5 C 324.263,363.791 324.596,364.791 325.5,365.5C 325.94,367.844 326.94,369.844 328.5,371.5C 328.5,371.833 328.5,372.167 328.5,372.5C 327.833,372.5 327.167,372.5 326.5,372.5C 323.27,372.439 321.437,370.772 321,367.5C 320.294,365.029 320.627,362.695 322,360.5C 322.708,361.381 323.542,362.047 324.5,362.5 Z"/></g>
<g><path style="opacity:0.314" fill="#b0afaa" d="M 401.5,368.5 C 401.5,369.5 401.5,370.5 401.5,371.5C 400.312,372.684 399.145,372.684 398,371.5C 397.072,374.035 395.238,375.035 392.5,374.5C 392.5,375.833 392.5,377.167 392.5,378.5C 391.527,376.052 391.194,373.385 391.5,370.5C 390.957,370.44 390.624,370.107 390.5,369.5C 391.325,368.614 392.325,368.281 393.5,368.5C 393.351,369.552 393.517,370.552 394,371.5C 394.949,369.907 396.115,368.574 397.5,367.5C 398.167,368.833 398.833,368.833 399.5,367.5C 399.369,366.624 399.702,365.957 400.5,365.5C 401.386,366.325 401.719,367.325 401.5,368.5 Z"/></g>
<g><path style="opacity:0.836" fill="#f1f1f0" d="M 96.5,347.5 C 102.176,347.334 107.843,347.501 113.5,348C 114.435,350.381 114.768,352.881 114.5,355.5C 113.833,355.5 113.5,355.833 113.5,356.5C 112.167,356.5 110.833,356.5 109.5,356.5C 109.5,366.5 109.5,376.5 109.5,386.5C 107.265,386.205 105.265,386.539 103.5,387.5C 102.833,387.5 102.167,387.5 101.5,387.5C 101.5,386.833 101.167,386.5 100.5,386.5C 100.5,376.5 100.5,366.5 100.5,356.5C 99.1667,356.5 97.8333,356.5 96.5,356.5C 96.5,353.5 96.5,350.5 96.5,347.5 Z"/></g>
<g><path style="opacity:0.641" fill="#a99a84" d="M 87.5,367.5 C 88.5,367.5 89.5,367.5 90.5,367.5C 90.5,370.833 90.5,374.167 90.5,377.5C 88.1667,377.5 85.8333,377.5 83.5,377.5C 83.1667,377.5 82.8333,377.5 82.5,377.5C 82.5,376.833 82.1667,376.5 81.5,376.5C 81.5,375.833 81.5,375.167 81.5,374.5C 83.3057,373.976 84.9724,373.309 86.5,372.5C 87.8333,372.167 87.8333,371.833 86.5,371.5C 87.2341,370.292 87.5674,368.959 87.5,367.5 Z"/></g>
<g><path style="opacity:0.133" fill="#a19d9a" d="M 229.5,351.5 C 231.476,361.781 232.143,372.448 231.5,383.5C 230.527,383.013 229.527,382.513 228.5,382C 229.486,371.916 229.819,361.749 229.5,351.5 Z"/></g>
<g><path style="opacity:0.047" fill="#838078" d="M 374.5,386.5 C 376.415,386.216 378.081,386.549 379.5,387.5C 377.801,387.34 376.134,387.506 374.5,388C 375.448,388.483 376.448,388.649 377.5,388.5C 376.081,389.451 374.415,389.784 372.5,389.5C 372.5,390.833 372.5,392.167 372.5,393.5C 371.18,385.99 371.18,378.323 372.5,370.5C 373.167,375.985 373.833,381.319 374.5,386.5 Z"/></g>
<g><path style="opacity:0.141" fill="#939290" d="M 425.5,348.5 C 425.5,361.167 425.5,373.833 425.5,386.5C 428.059,386.198 430.393,386.532 432.5,387.5C 429.833,387.5 427.167,387.5 424.5,387.5C 423.5,387.5 422.5,387.5 421.5,387.5C 422.209,386.596 423.209,386.263 424.5,386.5C 424.171,373.656 424.505,360.989 425.5,348.5 Z"/></g>
<g><path style="opacity:0.345" fill="#85817c" d="M 293.5,377.5 C 294.309,379.292 294.809,381.292 295,383.5C 295.81,379.728 297.31,379.061 299.5,381.5C 300.404,382.209 300.737,383.209 300.5,384.5C 299.167,383.167 297.833,383.167 296.5,384.5C 295.599,385.29 294.932,386.29 294.5,387.5C 293.833,387.5 293.167,387.5 292.5,387.5C 293.324,384.236 293.658,380.902 293.5,377.5 Z"/></g>
<g><path style="opacity:0.122" fill="#646361" d="M 202.5,372.5 C 202.5,377.5 202.5,382.5 202.5,387.5C 199.5,387.5 196.5,387.5 193.5,387.5C 193.5,382.833 193.5,378.167 193.5,373.5C 194.485,377.634 194.818,381.968 194.5,386.5C 196.833,386.5 199.167,386.5 201.5,386.5C 201.181,381.637 201.514,376.97 202.5,372.5 Z"/></g>
<g><path style="opacity:0.456" fill="#7b6e5f" d="M 344.5,374.5 C 344.338,376.527 344.505,378.527 345,380.5C 345.483,379.552 345.649,378.552 345.5,377.5C 346.5,377.5 347.5,377.5 348.5,377.5C 348.665,380.518 348.498,383.518 348,386.5C 347.8,388.32 346.966,389.653 345.5,390.5C 345.5,389.167 345.5,387.833 345.5,386.5C 343.315,386.704 341.315,387.37 339.5,388.5C 340.184,386.551 341.351,384.885 343,383.5C 343.181,380.305 343.681,377.305 344.5,374.5 Z"/></g>
<g><path style="opacity:0.545" fill="#d4d2d1" d="M 375.5,348.5 C 375.333,360.171 375.5,371.838 376,383.5C 377.049,385.107 378.549,385.773 380.5,385.5C 380.34,383.801 380.506,382.134 381,380.5C 381.333,380.833 381.667,381.167 382,381.5C 382.249,380.376 382.749,379.376 383.5,378.5C 384.231,380.401 384.231,382.401 383.5,384.5C 386.208,385.449 388.874,385.449 391.5,384.5C 388.537,380.747 389.204,379.08 393.5,379.5C 393.5,380.167 393.5,380.833 393.5,381.5C 393.5,383.5 393.5,385.5 393.5,387.5C 388.676,387.095 384.01,387.095 379.5,387.5C 378.081,386.549 376.415,386.216 374.5,386.5C 374.171,373.656 374.505,360.989 375.5,348.5 Z"/></g>
<g><path style="opacity:0.765" fill="#979497" d="M 462.5,378.5 C 462.854,386 465.854,387.334 471.5,382.5C 471.634,384.292 471.301,385.958 470.5,387.5C 467.5,387.5 464.5,387.5 461.5,387.5C 461.19,384.287 461.523,381.287 462.5,378.5 Z"/></g>
<g><path style="opacity:0.298" fill="#72706f" d="M 119.5,374.5 C 119.354,378.519 119.021,382.519 118.5,386.5C 120.833,386.5 123.167,386.5 125.5,386.5C 125.157,384.517 125.824,383.183 127.5,382.5C 127.371,384.216 127.038,385.883 126.5,387.5C 123.5,387.5 120.5,387.5 117.5,387.5C 117.438,382.924 118.105,378.591 119.5,374.5 Z"/></g>
<g><path style="opacity:0.286" fill="#84817c" d="M 233.5,348.5 C 233.5,361.167 233.5,373.833 233.5,386.5C 238.167,386.5 242.833,386.5 247.5,386.5C 247.5,387.167 247.833,387.5 248.5,387.5C 247.432,388.434 246.099,388.768 244.5,388.5C 240.833,387.167 237.167,387.167 233.5,388.5C 232.662,388.158 232.328,387.492 232.5,386.5C 232.171,373.656 232.505,360.989 233.5,348.5 Z"/></g>
<g><path style="opacity:0.251" fill="#7b6b50" d="M 227.5,350.5 C 227.334,360.506 227.5,370.506 228,380.5C 228.17,370.658 228.67,360.991 229.5,351.5C 229.819,361.749 229.486,371.916 228.5,382C 229.527,382.513 230.527,383.013 231.5,383.5C 231.263,384.791 231.596,385.791 232.5,386.5C 232.328,387.492 232.662,388.158 233.5,388.5C 236.833,388.5 240.167,388.5 243.5,388.5C 239.688,389.324 235.688,389.824 231.5,390C 230.167,391.333 230.167,392.667 231.5,394C 238.353,394.706 245.02,394.206 251.5,392.5C 250.547,394.61 248.881,395.777 246.5,396C 241.833,396.667 237.167,396.667 232.5,396C 230.113,395.024 228.946,393.191 229,390.5C 223.199,397.658 216.366,398.825 208.5,394C 207.748,393.329 207.414,392.496 207.5,391.5C 209.144,391.286 210.644,391.62 212,392.5C 216.414,391.697 220.914,391.197 225.5,391C 226.5,390.167 227.5,389.333 228.5,388.5C 227.73,386.308 226.73,384.974 225.5,384.5C 225.328,383.508 225.662,382.842 226.5,382.5C 226.172,371.654 226.506,360.987 227.5,350.5 Z"/></g>
<g><path style="opacity:0.18" fill="#827a74" d="M 400.5,380.5 C 400.5,382.5 400.5,384.5 400.5,386.5C 403.167,386.5 405.833,386.5 408.5,386.5C 408.5,386.833 408.5,387.167 408.5,387.5C 405.5,387.5 402.5,387.5 399.5,387.5C 397.621,388.341 395.621,388.675 393.5,388.5C 393.5,388.167 393.5,387.833 393.5,387.5C 393.5,385.5 393.5,383.5 393.5,381.5C 394.309,383.292 394.809,385.292 395,387.5C 396.356,386.62 397.856,386.286 399.5,386.5C 399.205,384.265 399.539,382.265 400.5,380.5 Z"/></g>
<g><path style="opacity:0.027" fill="#776f67" d="M 66.5,348.5 C 67.3267,353.651 67.8267,358.984 68,364.5C 68.1735,360.459 68.6735,356.459 69.5,352.5C 70.3322,362.483 70.8322,372.483 71,382.5C 71.1981,384.382 71.6981,386.048 72.5,387.5C 72.5,388.167 72.8333,388.5 73.5,388.5C 66.8333,389.833 60.1667,389.833 53.5,388.5C 54.791,388.737 55.791,388.404 56.5,387.5C 56.8333,387.5 57.1667,387.5 57.5,387.5C 57.8333,387.5 58.1667,387.5 58.5,387.5C 64.4745,388.62 65.8079,388.62 62.5,387.5C 63.5676,386.566 64.901,386.232 66.5,386.5C 66.5,373.833 66.5,361.167 66.5,348.5 Z"/></g>
<g><path style="opacity:0.369" fill="#7c7362" d="M 90.5,382.5 C 91.4959,382.414 92.3292,382.748 93,383.5C 93.8075,387.027 93.6408,390.36 92.5,393.5C 92.5,392.167 92.5,390.833 92.5,389.5C 90.5853,389.784 88.9187,389.451 87.5,388.5C 88.4916,388.672 89.1583,388.338 89.5,387.5C 90.4511,386.081 90.7845,384.415 90.5,382.5 Z"/></g>
<g><path style="opacity:0.133" fill="#685943" d="M 205.5,379.5 C 204.566,380.568 204.232,381.901 204.5,383.5C 204.739,385.467 204.406,387.301 203.5,389C 196.654,389.821 189.987,389.654 183.5,388.5C 190.022,388.823 196.355,388.49 202.5,387.5C 203.166,384.311 203.833,380.977 204.5,377.5C 205.298,377.957 205.631,378.624 205.5,379.5 Z"/></g>
<g><path style="opacity:0.663" fill="#827b6b" d="M 447.5,387.5 C 450.5,388.833 453.5,388.833 456.5,387.5C 457.167,387.5 457.5,387.167 457.5,386.5C 458.222,386.082 458.722,385.416 459,384.5C 459.852,385.571 460.685,386.571 461.5,387.5C 464.287,388.477 467.287,388.81 470.5,388.5C 468.513,389.343 466.346,390.01 464,390.5C 456.024,389.878 448.191,389.211 440.5,388.5C 441.167,388.5 441.5,388.167 441.5,387.5C 441.5,384.833 441.5,382.167 441.5,379.5C 442.314,381.631 442.814,383.964 443,386.5C 443.333,385.833 443.667,385.167 444,384.5C 444.827,378.149 444.66,371.649 443.5,365C 443.233,360.546 444.066,356.379 446,352.5C 446.169,364.341 446.669,376.007 447.5,387.5 Z"/></g>
<g><path style="opacity:0.769" fill="#a08b61" d="M 324.5,380.5 C 324.5,380.833 324.5,381.167 324.5,381.5C 324.328,382.492 324.662,383.158 325.5,383.5C 326.249,384.531 326.915,385.698 327.5,387C 331.328,389.228 335.328,389.728 339.5,388.5C 341.315,387.37 343.315,386.704 345.5,386.5C 345.5,387.833 345.5,389.167 345.5,390.5C 345.489,392.017 344.823,393.184 343.5,394C 335.174,399.004 328.174,397.504 322.5,389.5C 316.419,397.355 309.086,398.855 300.5,394C 299.658,391.033 298.658,390.866 297.5,393.5C 289.5,394.167 281.5,394.833 273.5,395.5C 271.757,394.359 270.757,392.692 270.5,390.5C 270.858,387.43 271.858,385.43 273.5,384.5C 274.404,385.209 274.737,386.209 274.5,387.5C 277.5,388.833 280.5,388.833 283.5,387.5C 284.167,387.5 284.833,387.5 285.5,387.5C 288.5,388.833 291.5,388.833 294.5,387.5C 296.048,387.179 296.715,386.179 296.5,384.5C 297.833,383.167 299.167,383.167 300.5,384.5C 303.148,389.959 306.648,390.959 311,387.5C 313.877,388.315 316.044,387.315 317.5,384.5C 317.5,383.833 317.833,383.5 318.5,383.5C 319.833,383.167 319.833,382.833 318.5,382.5C 318.263,381.209 318.596,380.209 319.5,379.5C 319.369,380.239 319.536,380.906 320,381.5C 321.124,378.158 322.624,377.825 324.5,380.5 Z M 296.5,384.5 C 296.715,386.179 296.048,387.179 294.5,387.5C 294.932,386.29 295.599,385.29 296.5,384.5 Z"/></g>
<g><path style="opacity:0.549" fill="#7b6952" d="M 481.5,382.5 C 482.302,383.952 482.802,385.618 483,387.5C 484.768,386.869 485.935,387.702 486.5,390C 485.917,392.499 484.584,394.499 482.5,396C 477.029,396.069 471.696,396.235 466.5,396.5C 463.837,396.681 461.503,396.015 459.5,394.5C 466.957,394.338 474.623,394.338 482.5,394.5C 482.5,393.167 482.5,391.833 482.5,390.5C 480.517,390.843 479.183,390.176 478.5,388.5C 479.633,387.138 477.967,387.138 473.5,388.5C 472.5,388.5 471.5,388.5 470.5,388.5C 470.5,388.167 470.5,387.833 470.5,387.5C 472.176,386.817 472.843,385.483 472.5,383.5C 473.404,384.209 473.737,385.209 473.5,386.5C 476.167,386.5 478.833,386.5 481.5,386.5C 481.5,385.167 481.5,383.833 481.5,382.5 Z"/></g>
<g><path style="opacity:0.047" fill="#292517" d="M 33.5,386.5 C 33.4013,389.237 33.7347,391.904 34.5,394.5C 32.9735,393.508 32.3068,392.008 32.5,390C 32.5143,388.615 32.8476,387.449 33.5,386.5 Z"/></g>
<g><path style="opacity:0.745" fill="#a28d66" d="M 142.5,377.5 C 143.479,380.625 143.813,383.958 143.5,387.5C 149.167,388.833 154.833,388.833 160.5,387.5C 161.833,387.167 161.833,386.833 160.5,386.5C 160.5,384.5 160.5,382.5 160.5,380.5C 161.302,381.952 161.802,383.618 162,385.5C 162.333,384.5 162.667,383.5 163,382.5C 165.413,387.429 164.913,391.929 161.5,396C 155.167,396.667 148.833,396.667 142.5,396C 141.473,395.487 140.473,394.987 139.5,394.5C 135.217,394.623 131.05,393.956 127,392.5C 124.496,392.693 122.163,393.359 120,394.5C 117.995,394.001 116.495,392.834 115.5,391C 118.909,390.004 122.242,389.171 125.5,388.5C 126.167,388.5 126.5,388.167 126.5,387.5C 127.5,387.5 128.5,387.5 129.5,387.5C 132.167,388.833 134.833,388.833 137.5,387.5C 138.885,386.426 140.051,385.093 141,383.5C 141.333,384.5 141.667,385.5 142,386.5C 142.498,383.518 142.665,380.518 142.5,377.5 Z"/></g>
<g><path style="opacity:0.868" fill="#a88e60" d="M 33.5,386.5 C 34.1667,386.5 34.8333,386.5 35.5,386.5C 35.3284,387.492 35.6618,388.158 36.5,388.5C 42.1667,388.5 47.8333,388.5 53.5,388.5C 60.1667,389.833 66.8333,389.833 73.5,388.5C 78.1667,388.5 82.8333,388.5 87.5,388.5C 88.9187,389.451 90.5853,389.784 92.5,389.5C 92.5,390.833 92.5,392.167 92.5,393.5C 92.0472,394.458 91.3805,395.292 90.5,396C 84.1667,396.667 77.8333,396.667 71.5,396C 70.944,395.617 70.6107,395.117 70.5,394.5C 70.44,393.957 70.1067,393.624 69.5,393.5C 65.7121,395.256 61.7121,395.922 57.5,395.5C 57.1667,395.5 56.8333,395.5 56.5,395.5C 49.1104,395.764 41.7771,395.43 34.5,394.5C 33.7347,391.904 33.4013,389.237 33.5,386.5 Z"/></g>
<g><path style="opacity:1" fill="#a28a5e" d="M 179.5,376.5 C 180.166,379.689 180.833,383.023 181.5,386.5C 182.182,387.243 182.849,387.909 183.5,388.5C 189.987,389.654 196.654,389.821 203.5,389C 204.406,387.301 204.739,385.467 204.5,383.5C 205.791,383.737 206.791,383.404 207.5,382.5C 207.833,382.5 208.167,382.5 208.5,382.5C 209.473,384.3 210.473,386.134 211.5,388C 213.636,389.179 215.636,389.679 217.5,389.5C 218.167,389.5 218.5,389.167 218.5,388.5C 220.279,388.626 222.279,388.292 224.5,387.5C 224.263,386.209 224.596,385.209 225.5,384.5C 226.73,384.974 227.73,386.308 228.5,388.5C 227.5,389.333 226.5,390.167 225.5,391C 220.914,391.197 216.414,391.697 212,392.5C 210.644,391.62 209.144,391.286 207.5,391.5C 206.164,393.307 204.497,394.807 202.5,396C 195.5,396.667 188.5,396.667 181.5,396C 181,395.5 180.5,395 180,394.5C 179.501,388.509 179.334,382.509 179.5,376.5 Z"/></g>
<g><path style="opacity:1" fill="#aa915c" d="M 366.5,389.5 C 366.762,390.978 366.429,392.311 365.5,393.5C 364.914,393.291 364.414,392.957 364,392.5C 362.82,393.684 361.32,394.351 359.5,394.5C 356.891,394.559 354.557,393.892 352.5,392.5C 352.5,391.5 352.5,390.5 352.5,389.5C 357.187,390.624 361.853,390.624 366.5,389.5 Z"/></g>
<g><path style="opacity:0.973" fill="#95825d" d="M 100.5,386.5 C 101.167,386.5 101.5,386.833 101.5,387.5C 109.774,388.382 110.441,388.382 103.5,387.5C 105.265,386.539 107.265,386.205 109.5,386.5C 110.458,386.047 111.292,385.381 112,384.5C 114.821,394.853 110.988,398.687 100.5,396C 99.5838,395.626 98.7504,395.126 98,394.5C 96.8011,391.274 96.3011,387.941 96.5,384.5C 98.1993,384.527 99.5326,385.194 100.5,386.5 Z"/></g>
<g><path style="opacity:0.914" fill="#816c4a" d="M 117.5,387.5 C 119.948,388.473 122.615,388.806 125.5,388.5C 122.242,389.171 118.909,390.004 115.5,391C 116.495,392.834 117.995,394.001 120,394.5C 122.163,393.359 124.496,392.693 127,392.5C 131.05,393.956 135.217,394.623 139.5,394.5C 139.389,395.117 139.056,395.617 138.5,396C 136.833,396.167 135.167,396.333 133.5,396.5C 128.242,396.13 122.909,395.963 117.5,396C 113.75,393.921 112.75,390.921 114.5,387C 115.577,386.53 116.577,386.697 117.5,387.5 Z"/></g>
<g><path style="opacity:1" fill="#a89165" d="M 251.5,392.5 C 245.02,394.206 238.353,394.706 231.5,394C 230.167,392.667 230.167,391.333 231.5,390C 235.688,389.824 239.688,389.324 243.5,388.5C 243.833,388.5 244.167,388.5 244.5,388.5C 246.099,388.768 247.432,388.434 248.5,387.5C 248.5,387.167 248.5,386.833 248.5,386.5C 248.833,385.5 249.5,384.833 250.5,384.5C 251.833,384.167 251.833,383.833 250.5,383.5C 250.328,382.508 250.662,381.842 251.5,381.5C 251.833,382.833 252.167,382.833 252.5,381.5C 252.5,381.167 252.5,380.833 252.5,380.5C 253.148,378.502 253.981,376.502 255,374.5C 256.801,379.06 256.801,383.727 255,388.5C 254.34,390.324 253.173,391.657 251.5,392.5 Z"/></g>
<g><path style="opacity:0.31" fill="#675739" d="M 297.5,393.5 C 295.668,395.894 293.168,396.894 290,396.5C 284.403,396.423 278.903,396.089 273.5,395.5C 281.5,394.833 289.5,394.167 297.5,393.5 Z"/></g>
<g><path style="opacity:0.325" fill="#705e44" d="M 367.5,373.5 C 367.666,380.508 367.5,387.508 367,394.5C 363.067,396.478 358.9,396.978 354.5,396C 353.177,395.184 352.511,394.017 352.5,392.5C 354.557,393.892 356.891,394.559 359.5,394.5C 361.32,394.351 362.82,393.684 364,392.5C 364.414,392.957 364.914,393.291 365.5,393.5C 366.429,392.311 366.762,390.978 366.5,389.5C 366.179,383.974 366.512,378.64 367.5,373.5 Z"/></g>
<g><path style="opacity:0.314" fill="#9e875a" d="M 410.5,384.5 C 411.74,385.659 413.074,386.659 414.5,387.5C 413.367,388.862 415.033,388.862 419.5,387.5C 420.167,387.5 420.833,387.5 421.5,387.5C 422.5,387.5 423.5,387.5 424.5,387.5C 429.64,388.488 434.974,388.821 440.5,388.5C 448.191,389.211 456.024,389.878 464,390.5C 466.346,390.01 468.513,389.343 470.5,388.5C 471.5,388.5 472.5,388.5 473.5,388.5C 475.167,388.5 476.833,388.5 478.5,388.5C 479.183,390.176 480.517,390.843 482.5,390.5C 482.5,391.833 482.5,393.167 482.5,394.5C 474.623,394.338 466.957,394.338 459.5,394.5C 459.167,394.5 458.833,394.5 458.5,394.5C 453.473,395.747 448.807,395.747 444.5,394.5C 444.082,395.222 443.416,395.722 442.5,396C 435.464,396.72 428.464,396.553 421.5,395.5C 414.011,394.671 406.344,394.171 398.5,394C 396.726,392.244 395.059,392.244 393.5,394C 394.056,394.383 394.389,394.883 394.5,395.5C 389.54,396.064 384.54,396.398 379.5,396.5C 377.833,396.333 376.167,396.167 374.5,396C 373.244,395.583 372.577,394.75 372.5,393.5C 372.5,392.167 372.5,390.833 372.5,389.5C 374.415,389.784 376.081,389.451 377.5,388.5C 382.833,388.5 388.167,388.5 393.5,388.5C 395.621,388.675 397.621,388.341 399.5,387.5C 402.5,388.833 405.5,388.833 408.5,387.5C 410.048,387.179 410.715,386.179 410.5,384.5 Z"/></g>
<g><path style="opacity:0.314" fill="#735f41" d="M 421.5,395.5 C 412.456,396.375 403.456,396.375 394.5,395.5C 394.389,394.883 394.056,394.383 393.5,394C 395.059,392.244 396.726,392.244 398.5,394C 406.344,394.171 414.011,394.671 421.5,395.5 Z"/></g>
<g><path style="opacity:0.027" fill="#2c1d09" d="M 34.5,394.5 C 41.7771,395.43 49.1104,395.764 56.5,395.5C 49.6791,396.655 42.6791,396.821 35.5,396C 34.944,395.617 34.6107,395.117 34.5,394.5 Z"/></g>
<g><path style="opacity:0.035" fill="#362012" d="M 70.5,394.5 C 66.2079,396.631 61.8746,396.965 57.5,395.5C 61.7121,395.922 65.7121,395.256 69.5,393.5C 70.1067,393.624 70.44,393.957 70.5,394.5 Z"/></g>
<g><path style="opacity:0.047" fill="#40311e" d="M 444.5,394.5 C 448.807,395.747 453.473,395.747 458.5,394.5C 458.389,395.117 458.056,395.617 457.5,396C 452.871,397.022 448.538,396.522 444.5,394.5 Z"/></g>
<g><path style="opacity:0.98" fill="#a59a70" d="M 213.5,411.5 C 213.792,415.702 212.292,419.036 209,421.5C 208.809,419.292 208.309,417.292 207.5,415.5C 206.5,415.5 205.5,415.5 204.5,415.5C 204.629,417.216 204.962,418.883 205.5,420.5C 203.649,421.866 203.316,423.533 204.5,425.5C 205.251,424.624 205.751,423.624 206,422.5C 208.629,422.928 210.962,423.928 213,425.5C 212.845,428.84 212.345,432.174 211.5,435.5C 208.024,436.643 204.358,436.81 200.5,436C 199.667,435.167 198.833,434.333 198,433.5C 196.127,426.215 196.127,418.882 198,411.5C 203.251,406.245 208.417,406.245 213.5,411.5 Z M 207.5,415.5 C 207.923,417.781 207.256,419.448 205.5,420.5C 204.962,418.883 204.629,417.216 204.5,415.5C 205.5,415.5 206.5,415.5 207.5,415.5 Z"/></g>
<g><path style="opacity:0.776" fill="#a99d71" d="M 232.5,407.5 C 238.086,406.271 241.919,408.271 244,413.5C 244.667,419.5 244.667,425.5 244,431.5C 243.215,433.286 242.049,434.786 240.5,436C 237.167,436.667 233.833,436.667 230.5,436C 228.951,434.786 227.785,433.286 227,431.5C 226.333,425.5 226.333,419.5 227,413.5C 228.36,410.977 230.193,408.977 232.5,407.5 Z M 234.5,415.5 C 235.496,415.414 236.329,415.748 237,416.5C 237.499,420.821 237.666,425.154 237.5,429.5C 236.5,429.5 235.5,429.5 234.5,429.5C 234.5,424.833 234.5,420.167 234.5,415.5 Z"/></g>
<g><path style="opacity:0.544" fill="#948b68" d="M 428.5,407.5 C 441.078,404.929 446.745,409.929 445.5,422.5C 446.412,435.564 440.412,440.23 427.5,436.5C 427.194,426.75 427.527,417.084 428.5,407.5 Z M 434.5,415.5 C 435.5,415.5 436.5,415.5 437.5,415.5C 437.5,420.167 437.5,424.833 437.5,429.5C 436.5,429.5 435.5,429.5 434.5,429.5C 434.5,424.833 434.5,420.167 434.5,415.5 Z"/></g>
<g><path style="opacity:0.99" fill="#ada074" d="M 127.5,407.5 C 131.514,407.334 135.514,407.501 139.5,408C 145.01,411.695 146.343,416.528 143.5,422.5C 145.551,427.007 145.884,431.674 144.5,436.5C 142.076,436.808 139.743,436.474 137.5,435.5C 136.028,423.587 134.861,423.587 134,435.5C 131.667,436.833 129.333,436.833 127,435.5C 126.195,426.089 126.362,416.756 127.5,407.5 Z M 134.5,415.5 C 136.465,415.948 136.798,416.948 135.5,418.5C 134.614,417.675 134.281,416.675 134.5,415.5 Z"/></g>
<g><path style="opacity:0.518" fill="#9a8f6d" d="M 373.5,434.5 C 372.542,434.047 371.708,433.381 371,432.5C 370.333,426.167 370.333,419.833 371,413.5C 374.363,407.516 379.197,406.016 385.5,409C 388.154,412.327 389.154,416.161 388.5,420.5C 384.5,420.833 384.5,421.167 388.5,421.5C 390.678,433.154 386.011,437.988 374.5,436C 373.944,435.617 373.611,435.117 373.5,434.5 Z M 378.5,415.5 C 380.176,416.183 380.843,417.517 380.5,419.5C 380.217,420.289 379.717,420.956 379,421.5C 378.505,419.527 378.338,417.527 378.5,415.5 Z"/></g>
<g><path style="opacity:0.118" fill="#564f39" d="M 416.5,408.5 C 417.491,415.313 417.825,422.313 417.5,429.5C 419.735,429.205 421.735,429.539 423.5,430.5C 421.167,430.5 418.833,430.5 416.5,430.5C 416.5,423.167 416.5,415.833 416.5,408.5 Z"/></g>
<g><path style="opacity:0.997" fill="#aa9d72" d="M 305.5,407.5 C 307.199,407.34 308.866,407.506 310.5,408C 311.924,410.101 313.258,412.267 314.5,414.5C 315.645,413.224 315.645,411.891 314.5,410.5C 316.357,407.494 318.857,406.828 322,408.5C 322.5,417.827 322.666,427.161 322.5,436.5C 316.993,437.895 313.493,435.895 312,430.5C 311.505,432.473 311.338,434.473 311.5,436.5C 309.167,436.5 306.833,436.5 304.5,436.5C 304.73,430.099 304.396,423.766 303.5,417.5C 304.078,414.106 304.744,410.772 305.5,407.5 Z"/></g>
<g><path style="opacity:0.99" fill="#b0a375" d="M 178.5,407.5 C 180.199,407.34 181.866,407.506 183.5,408C 185.182,410.69 186.682,413.523 188,416.5C 188.498,413.518 188.665,410.518 188.5,407.5C 190.792,407.244 192.959,407.577 195,408.5C 195.667,417.5 195.667,426.5 195,435.5C 190.376,437.523 187.376,436.19 186,431.5C 185.727,433.101 185.227,434.601 184.5,436C 182.19,436.497 179.857,436.663 177.5,436.5C 177.194,426.75 177.527,417.084 178.5,407.5 Z"/></g>
<g><path style="opacity:0.608" fill="#787159" d="M 213.5,411.5 C 215.203,413.851 215.703,416.518 215,419.5C 213.933,420.191 212.766,420.691 211.5,421C 214.864,421.297 216.197,423.131 215.5,426.5C 215.689,430.299 214.355,433.299 211.5,435.5C 212.345,432.174 212.845,428.84 213,425.5C 210.962,423.928 208.629,422.928 206,422.5C 205.751,423.624 205.251,424.624 204.5,425.5C 203.316,423.533 203.649,421.866 205.5,420.5C 207.256,419.448 207.923,417.781 207.5,415.5C 208.309,417.292 208.809,419.292 209,421.5C 212.292,419.036 213.792,415.702 213.5,411.5 Z"/></g>
<g><path style="opacity:0.624" fill="#9d936d" d="M 108.5,407.5 C 110.262,407.357 111.929,407.691 113.5,408.5C 114.497,415.468 114.83,422.468 114.5,429.5C 115.5,429.5 116.5,429.5 117.5,429.5C 117.334,422.492 117.5,415.492 118,408.5C 120.333,407.167 122.667,407.167 125,408.5C 125.667,416.167 125.667,423.833 125,431.5C 123.2,435.235 120.2,436.902 116,436.5C 112.332,437 109.666,435.666 108,432.5C 107.199,424.088 107.366,415.755 108.5,407.5 Z"/></g>
<g><path style="opacity:0.937" fill="#aea275" d="M 147.5,407.5 C 149.591,407.318 151.591,407.652 153.5,408.5C 154.761,410.453 155.927,412.453 157,414.5C 156.123,408.364 158.456,406.364 164,408.5C 164.5,417.827 164.666,427.161 164.5,436.5C 159.008,437.96 155.842,435.96 155,430.5C 154.505,432.473 154.338,434.473 154.5,436.5C 151.881,436.768 149.381,436.435 147,435.5C 146.195,426.089 146.362,416.756 147.5,407.5 Z"/></g>
<g><path style="opacity:0.831" fill="#aa9d74" d="M 324.5,407.5 C 329.844,407.334 335.177,407.501 340.5,408C 341.191,409.067 341.691,410.234 342,411.5C 345.836,407.467 350.336,406.634 355.5,409C 356.701,409.903 357.535,411.069 358,412.5C 358.667,419.167 358.667,425.833 358,432.5C 353.599,437.028 348.599,437.694 343,434.5C 342.333,433.167 341.667,431.833 341,430.5C 340.626,424.994 340.459,419.661 340.5,414.5C 338.775,415.015 337.108,415.682 335.5,416.5C 335.532,422.808 335.699,429.142 336,435.5C 333.619,436.435 331.119,436.768 328.5,436.5C 328.5,429.5 328.5,422.5 328.5,415.5C 324.013,414.527 322.68,411.86 324.5,407.5 Z M 349.5,415.5 C 351.436,419.715 352.103,424.381 351.5,429.5C 350.5,429.5 349.5,429.5 348.5,429.5C 348.226,424.737 348.559,420.07 349.5,415.5 Z"/></g>
<g><path style="opacity:0.9" fill="#9d936e" d="M 416.5,408.5 C 416.5,415.833 416.5,423.167 416.5,430.5C 418.833,430.5 421.167,430.5 423.5,430.5C 425.308,431.918 425.975,433.918 425.5,436.5C 420.167,436.5 414.833,436.5 409.5,436.5C 409.334,427.494 409.5,418.494 410,409.5C 412.016,407.392 414.183,407.058 416.5,408.5 Z"/></g>
<g><path style="opacity:0.957" fill="#afa278" d="M 265.5,407.5 C 277.992,404.994 283.325,409.994 281.5,422.5C 281.333,425.833 281.167,429.167 281,432.5C 280.626,433.416 280.126,434.25 279.5,435C 274.628,436.388 269.628,436.888 264.5,436.5C 264.194,426.75 264.527,417.084 265.5,407.5 Z M 271.5,415.5 C 272.496,415.414 273.329,415.748 274,416.5C 274.499,420.821 274.666,425.154 274.5,429.5C 273.5,429.5 272.5,429.5 271.5,429.5C 271.5,424.833 271.5,420.167 271.5,415.5 Z"/></g>
<g><path style="opacity:0.6" fill="#928863" d="M 168.5,407.5 C 171.596,406.907 173.929,407.907 175.5,410.5C 175.558,418.386 175.391,426.386 175,434.5C 172.624,436.744 169.957,437.077 167,435.5C 166.899,428.587 166.732,421.754 166.5,415C 166.303,412.176 166.969,409.676 168.5,407.5 Z"/></g>
<g><path style="opacity:0.561" fill="#aea078" d="M 295.5,407.5 C 297.467,407.261 299.301,407.594 301,408.5C 301.5,417.827 301.666,427.161 301.5,436.5C 299.167,436.5 296.833,436.5 294.5,436.5C 294.817,427.915 294.483,419.415 293.5,411C 294.305,409.887 294.972,408.721 295.5,407.5 Z"/></g>
<g><path style="opacity:0.897" fill="#b4a879" d="M 378.5,415.5 C 378.338,417.527 378.505,419.527 379,421.5C 379.717,420.956 380.217,420.289 380.5,419.5C 382.246,420.745 383.912,422.079 385.5,423.5C 386.401,426.795 386.401,430.128 385.5,433.5C 383.325,433.682 381.325,434.349 379.5,435.5C 377.547,434.844 375.547,434.511 373.5,434.5C 373.219,427.288 373.552,420.122 374.5,413C 377.915,409.509 381.248,409.676 384.5,413.5C 382.39,413.089 380.39,413.756 378.5,415.5 Z"/></g>
<g><path style="opacity:0.984" fill="#aa9e74" d="M 247.5,407.5 C 249.467,407.261 251.301,407.594 253,408.5C 253.997,415.467 254.497,422.467 254.5,429.5C 256.989,429.298 259.323,429.798 261.5,431C 262.833,432.667 262.833,434.333 261.5,436C 256.511,436.499 251.511,436.666 246.5,436.5C 246.194,426.75 246.527,417.084 247.5,407.5 Z"/></g>
<g><path style="opacity:0.994" fill="#b7a879" d="M 430.5,409.5 C 434.723,409.339 438.723,410.006 442.5,411.5C 443.487,417.805 443.653,424.138 443,430.5C 439.974,434.904 435.808,436.404 430.5,435C 429.541,433.293 428.875,431.459 428.5,429.5C 429.129,422.782 429.795,416.116 430.5,409.5 Z M 434.5,415.5 C 434.5,420.167 434.5,424.833 434.5,429.5C 435.5,429.5 436.5,429.5 437.5,429.5C 437.5,424.833 437.5,420.167 437.5,415.5C 436.5,415.5 435.5,415.5 434.5,415.5 Z"/></g>
<g><path style="opacity:0.98" fill="#bdae7b" d="M 119.5,409.5 C 120.496,409.414 121.329,409.748 122,410.5C 122.667,417.5 122.667,424.5 122,431.5C 120.513,432.253 120.346,433.086 121.5,434C 117.518,436.144 113.685,435.978 110,433.5C 109.169,426.808 109.336,420.142 110.5,413.5C 111.497,419.468 112.164,425.468 112.5,431.5C 114.792,431.756 116.959,431.423 119,430.5C 119.5,423.508 119.666,416.508 119.5,409.5 Z"/></g>
<g><path style="opacity:0.996" fill="#a69b72" d="M 395.5,407.5 C 400.635,406.426 404.468,408.093 407,412.5C 407.667,419.167 407.667,425.833 407,432.5C 406.5,434.333 405.333,435.5 403.5,436C 400.167,436.667 396.833,436.667 393.5,436C 392.213,434.59 391.046,433.09 390,431.5C 389.333,425.5 389.333,419.5 390,413.5C 391.36,410.977 393.193,408.977 395.5,407.5 Z M 398.5,415.5 C 399.8,417.223 400.467,419.39 400.5,422C 399.764,431.596 398.764,431.762 397.5,422.5C 397.56,420.079 397.893,417.746 398.5,415.5 Z"/></g>
<g><path style="opacity:0.647" fill="#9b8e6b" d="M 89.5,407.5 C 94.5111,407.334 99.5111,407.501 104.5,408C 107.796,412.744 106.462,415.411 100.5,416C 101.643,422.418 101.81,428.918 101,435.5C 98.6194,436.435 96.1194,436.768 93.5,436.5C 93.5,429.5 93.5,422.5 93.5,415.5C 88.1151,414.641 86.7818,411.974 89.5,407.5 Z"/></g>
</svg>
